<svg xmlns="http://www.w3.org/2000/svg" viewBox="0 0 1836 180" width="918" height="90">
<defs>
<linearGradient id="nk-gFace" x1="0" y1="0" x2="1" y2="1">
  <stop offset="0" stop-color="#fffdf6"/><stop offset=".55" stop-color="#f5eedb"/><stop offset="1" stop-color="#e7dcc2"/>
</linearGradient>
<linearGradient id="nk-gSide" x1="0" y1="0" x2="0" y2="1">
  <stop offset="0" stop-color="#d5cbae"/><stop offset=".45" stop-color="#bfb28f"/><stop offset="1" stop-color="#9a8d6a"/>
</linearGradient>
</defs>
<g transform="translate(0,0)"><rect x="5" y="11" width="110" height="164" rx="13" fill="url(#nk-gSide)"/>
<rect x="5" y="6" width="110" height="165" rx="13" fill="url(#nk-gFace)"/>
<rect x="6.8" y="8" width="106.4" height="161" rx="11.5" fill="none" stroke="rgba(255,255,255,.6)" stroke-width="1.6"/>
<rect x="9.5" y="11" width="101" height="156" rx="9.5" fill="none" stroke="rgba(115,98,60,.16)" stroke-width="1"/>
<g transform="translate(5.85,15.9) scale(5.7)">
      <path fill="#231815" d="M5.29,7.75c-1.42,0-2.12-.18-2.12-.54,0-.22,.19-.32,.58-.32,.1,0,.26,0,.5,.02,.24,.01,.43,.02,.58,.02,1.3,0,2.79-.36,4.48-1.08,1.69-.72,2.7-1.08,3.04-1.08,.38,0,.77,.05,1.17,.16,.4,.11,.69,.16,.88,.16,.53,0,.88,.07,1.04,.22,.17,.14,.25,.4,.25,.76,0,.24-.07,.47-.2,.68-.13,.22-.31,.32-.52,.32-.02,0-.34-.12-.94-.36-.6-.24-1.32-.36-2.16-.36-1.13,0-2.31,.23-3.54,.7-1.24,.47-2.25,.7-3.04,.7Z"/>
  <path fill="#881c21" d="M8.06,19.76c-.1,0-.29,.06-.58,.18l-.14,.29c-.12,.19-.23,.34-.32,.43-.36-.22-.54-.91-.54-2.09,0-.91,.05-1.57,.14-1.98,.89-.14,1.86-.36,2.93-.65,1.07-.29,1.73-.43,2-.43,.5,0,.76,.17,.76,.5l-.25,.94c-.17,.62-.25,1.27-.25,1.94,0,.38,.02,.79,.07,1.22,.46,.02,.95,.1,1.47,.22,.53,.12,1.07,.36,1.64,.72,.56,.36,.85,.78,.85,1.26,0,.41-.16,.72-.47,.94-.31,.22-.71,.32-1.19,.32-.12,0-.39,.08-.81,.23-.42,.16-.74,.23-.95,.23-.31,0-.88-.16-1.71-.49-.83-.32-1.41-.59-1.74-.81-.12,.05-.25,.13-.38,.23-.13,.11-.23,.16-.31,.16-.12,0-.5-.1-1.15-.29,0,.02,0,.1-.02,.22-.01,.12-.02,.21-.04,.27-.01,.06-.02,.13-.04,.22-.01,.08-.04,.15-.09,.2-.05,.05-.11,.07-.18,.07s-.15-.05-.23-.14c-.08-.1-.16-.22-.22-.38-.06-.16-.12-.31-.18-.45-.06-.14-.11-.3-.16-.47-.05-.17-.08-.28-.11-.32h-.43c-.46,0-.88-.07-1.26-.22-.38-.14-.58-.35-.58-.61,0-.02,0-.06,.02-.11,.01-.05,.02-.1,.02-.14,.22,0,.52,.02,.9,.07,.38,.05,.68,.07,.9,.07h.14c-.02-.19-.07-.46-.14-.81-.07-.35-.13-.64-.18-.86-.05-.23-.07-.4-.07-.52,0-.05,.05-.12,.14-.22,.29,.05,.5,.19,.63,.41,.13,.23,.25,.55,.34,.95,.1,.41,.22,.74,.36,1.01,.34,0,.79-.1,1.37-.29,0-.07,0-.24,.02-.5,.01-.26,.02-.44,.02-.54Zm4.5-4.93c-.72,0-1.79,.21-3.2,.63-1.42,.42-2.35,.63-2.81,.63-1.44,0-2.37-.26-2.81-.79,.43-.26,.76-.4,.97-.4,.24,0,.61,.06,1.1,.18,.49,.12,.9,.18,1.24,.18,.48,0,.8-.05,.97-.14,.17-.1,.25-.31,.25-.65,0-.07-.07-.13-.2-.16-.13-.04-.22-.09-.27-.16,0-.1,.02-.17,.05-.22,.04-.05,.1-.11,.18-.2,.08-.08,.15-.17,.2-.27,.05-.07,.14-.22,.27-.45,.13-.23,.24-.38,.32-.47,.08-.08,.19-.13,.31-.13,.17,0,.25,.12,.25,.36,0,.19-.02,.39-.05,.59-.04,.2-.1,.43-.18,.68-.08,.25-.14,.45-.16,.59,.05,.12,.13,.18,.25,.18,.14,0,.35-.28,.63-.83,.28-.55,.41-.95,.41-1.19,0-.14-.08-.28-.23-.41-.16-.13-.26-.23-.31-.31,.19-.43,.61-.77,1.26-1.01,.48,.17,.72,.61,.72,1.33,0,.24-.1,.53-.31,.86-.2,.34-.32,.65-.34,.94,.19-.02,.46-.07,.79-.14,.34-.07,.67-.13,1.01-.16,.34-.04,.7-.05,1.08-.05,.77,0,1.21,.08,1.33,.25-.17,.34-.43,.59-.79,.76-.31-.02-.96-.04-1.94-.04Zm-5.76,7.01c.1,.24,.18,.43,.25,.58,.34-.07,.72-.2,1.15-.4-.12-.14-.18-.34-.18-.58l-1.22,.4Zm.54-4.75v.65h.07l.07,.04,.65-.11c0-.19,.02-.43,.07-.72l-.86,.14Zm.72,1.19c-.14,.02-.3,.05-.47,.07-.14,0-.22,.01-.23,.04-.01,.02-.02,.07-.02,.14v.14s0,.13,.02,.25c.01,.12,.02,.2,.02,.25,.12,0,.35-.02,.68-.07v-.83Zm.9-1.51c0,.12-.02,.25-.05,.4-.04,.14-.05,.26-.05,.36,.24-.05,.52-.1,.83-.16,.31-.06,.54-.1,.68-.13,0-.12,0-.26,.02-.43,.01-.17,.02-.3,.02-.4-.22,.05-.47,.11-.76,.2-.29,.08-.52,.14-.68,.16Zm-.11,1.37v.79c.34-.02,.81-.13,1.44-.32,0-.36,.01-.64,.04-.83-.53,.17-1.02,.29-1.47,.36Zm.07,1.44v.97c.53-.1,.99-.23,1.4-.4,0-.41-.01-.72-.04-.94-.12,.05-.33,.11-.63,.18-.3,.07-.55,.13-.74,.18Zm.04,1.62c0,.38,.06,.58,.18,.58,.1,0,.2-.02,.31-.05,.11-.04,.25-.09,.43-.16,.18-.07,.35-.13,.52-.18-.05-.26-.06-.46-.04-.58-.14,.02-.61,.16-1.4,.4Zm3.02-.43s.02,.16,.05,.32c.04,.17,.05,.31,.05,.43s-.04,.25-.11,.4c-.46,.31-.9,.47-1.33,.47-.02-.02-.06-.1-.11-.22-.05-.12-.08-.2-.11-.25-.14,.05-.31,.13-.49,.25-.18,.12-.33,.2-.45,.25,.1,.14,.34,.29,.72,.45,.38,.16,.68,.23,.9,.23,.14,0,.28-.03,.41-.09,.13-.06,.28-.15,.43-.27,.16-.12,.28-.2,.38-.25,.12-.05,.35-.08,.7-.11,.35-.02,.61-.09,.79-.2,.18-.11,.27-.29,.27-.56,0-.19-.25-.38-.76-.56-.5-.18-.96-.28-1.37-.31Z"/>
    </g>
<rect x="4" y="4" width="112" height="172" rx="15" fill="none" stroke="#d97706" stroke-width="5"/></g>
<g transform="translate(132,0)"><rect x="5" y="11" width="110" height="164" rx="13" fill="url(#nk-gSide)"/>
<rect x="5" y="6" width="110" height="165" rx="13" fill="url(#nk-gFace)"/>
<rect x="6.8" y="8" width="106.4" height="161" rx="11.5" fill="none" stroke="rgba(255,255,255,.6)" stroke-width="1.6"/>
<rect x="9.5" y="11" width="101" height="156" rx="9.5" fill="none" stroke="rgba(115,98,60,.16)" stroke-width="1"/>
<g transform="translate(5.85,15.9) scale(5.7)">
      <path fill="#231815" d="M5.29,7.75c-1.42,0-2.12-.18-2.12-.54,0-.22,.19-.32,.58-.32,.1,0,.26,0,.5,.02,.24,.01,.43,.02,.58,.02,1.3,0,2.79-.36,4.48-1.08,1.69-.72,2.7-1.08,3.04-1.08,.38,0,.77,.05,1.17,.16,.4,.11,.69,.16,.88,.16,.53,0,.88,.07,1.04,.22,.17,.14,.25,.4,.25,.76,0,.24-.07,.47-.2,.68-.13,.22-.31,.32-.52,.32-.02,0-.34-.12-.94-.36-.6-.24-1.32-.36-2.16-.36-1.13,0-2.31,.23-3.54,.7-1.24,.47-2.25,.7-3.04,.7Z"/>
  <path fill="#881c21" d="M8.06,19.76c-.1,0-.29,.06-.58,.18l-.14,.29c-.12,.19-.23,.34-.32,.43-.36-.22-.54-.91-.54-2.09,0-.91,.05-1.57,.14-1.98,.89-.14,1.86-.36,2.93-.65,1.07-.29,1.73-.43,2-.43,.5,0,.76,.17,.76,.5l-.25,.94c-.17,.62-.25,1.27-.25,1.94,0,.38,.02,.79,.07,1.22,.46,.02,.95,.1,1.47,.22,.53,.12,1.07,.36,1.64,.72,.56,.36,.85,.78,.85,1.26,0,.41-.16,.72-.47,.94-.31,.22-.71,.32-1.19,.32-.12,0-.39,.08-.81,.23-.42,.16-.74,.23-.95,.23-.31,0-.88-.16-1.71-.49-.83-.32-1.41-.59-1.74-.81-.12,.05-.25,.13-.38,.23-.13,.11-.23,.16-.31,.16-.12,0-.5-.1-1.15-.29,0,.02,0,.1-.02,.22-.01,.12-.02,.21-.04,.27-.01,.06-.02,.13-.04,.22-.01,.08-.04,.15-.09,.2-.05,.05-.11,.07-.18,.07s-.15-.05-.23-.14c-.08-.1-.16-.22-.22-.38-.06-.16-.12-.31-.18-.45-.06-.14-.11-.3-.16-.47-.05-.17-.08-.28-.11-.32h-.43c-.46,0-.88-.07-1.26-.22-.38-.14-.58-.35-.58-.61,0-.02,0-.06,.02-.11,.01-.05,.02-.1,.02-.14,.22,0,.52,.02,.9,.07,.38,.05,.68,.07,.9,.07h.14c-.02-.19-.07-.46-.14-.81-.07-.35-.13-.64-.18-.86-.05-.23-.07-.4-.07-.52,0-.05,.05-.12,.14-.22,.29,.05,.5,.19,.63,.41,.13,.23,.25,.55,.34,.95,.1,.41,.22,.74,.36,1.01,.34,0,.79-.1,1.37-.29,0-.07,0-.24,.02-.5,.01-.26,.02-.44,.02-.54Zm4.5-4.93c-.72,0-1.79,.21-3.2,.63-1.42,.42-2.35,.63-2.81,.63-1.44,0-2.37-.26-2.81-.79,.43-.26,.76-.4,.97-.4,.24,0,.61,.06,1.1,.18,.49,.12,.9,.18,1.24,.18,.48,0,.8-.05,.97-.14,.17-.1,.25-.31,.25-.65,0-.07-.07-.13-.2-.16-.13-.04-.22-.09-.27-.16,0-.1,.02-.17,.05-.22,.04-.05,.1-.11,.18-.2,.08-.08,.15-.17,.2-.27,.05-.07,.14-.22,.27-.45,.13-.23,.24-.38,.32-.47,.08-.08,.19-.13,.31-.13,.17,0,.25,.12,.25,.36,0,.19-.02,.39-.05,.59-.04,.2-.1,.43-.18,.68-.08,.25-.14,.45-.16,.59,.05,.12,.13,.18,.25,.18,.14,0,.35-.28,.63-.83,.28-.55,.41-.95,.41-1.19,0-.14-.08-.28-.23-.41-.16-.13-.26-.23-.31-.31,.19-.43,.61-.77,1.26-1.01,.48,.17,.72,.61,.72,1.33,0,.24-.1,.53-.31,.86-.2,.34-.32,.65-.34,.94,.19-.02,.46-.07,.79-.14,.34-.07,.67-.13,1.01-.16,.34-.04,.7-.05,1.08-.05,.77,0,1.21,.08,1.33,.25-.17,.34-.43,.59-.79,.76-.31-.02-.96-.04-1.94-.04Zm-5.76,7.01c.1,.24,.18,.43,.25,.58,.34-.07,.72-.2,1.15-.4-.12-.14-.18-.34-.18-.58l-1.22,.4Zm.54-4.75v.65h.07l.07,.04,.65-.11c0-.19,.02-.43,.07-.72l-.86,.14Zm.72,1.19c-.14,.02-.3,.05-.47,.07-.14,0-.22,.01-.23,.04-.01,.02-.02,.07-.02,.14v.14s0,.13,.02,.25c.01,.12,.02,.2,.02,.25,.12,0,.35-.02,.68-.07v-.83Zm.9-1.51c0,.12-.02,.25-.05,.4-.04,.14-.05,.26-.05,.36,.24-.05,.52-.1,.83-.16,.31-.06,.54-.1,.68-.13,0-.12,0-.26,.02-.43,.01-.17,.02-.3,.02-.4-.22,.05-.47,.11-.76,.2-.29,.08-.52,.14-.68,.16Zm-.11,1.37v.79c.34-.02,.81-.13,1.44-.32,0-.36,.01-.64,.04-.83-.53,.17-1.02,.29-1.47,.36Zm.07,1.44v.97c.53-.1,.99-.23,1.4-.4,0-.41-.01-.72-.04-.94-.12,.05-.33,.11-.63,.18-.3,.07-.55,.13-.74,.18Zm.04,1.62c0,.38,.06,.58,.18,.58,.1,0,.2-.02,.31-.05,.11-.04,.25-.09,.43-.16,.18-.07,.35-.13,.52-.18-.05-.26-.06-.46-.04-.58-.14,.02-.61,.16-1.4,.4Zm3.02-.43s.02,.16,.05,.32c.04,.17,.05,.31,.05,.43s-.04,.25-.11,.4c-.46,.31-.9,.47-1.33,.47-.02-.02-.06-.1-.11-.22-.05-.12-.08-.2-.11-.25-.14,.05-.31,.13-.49,.25-.18,.12-.33,.2-.45,.25,.1,.14,.34,.29,.72,.45,.38,.16,.68,.23,.9,.23,.14,0,.28-.03,.41-.09,.13-.06,.28-.15,.43-.27,.16-.12,.28-.2,.38-.25,.12-.05,.35-.08,.7-.11,.35-.02,.61-.09,.79-.2,.18-.11,.27-.29,.27-.56,0-.19-.25-.38-.76-.56-.5-.18-.96-.28-1.37-.31Z"/>
    </g>
<rect x="4" y="4" width="112" height="172" rx="15" fill="none" stroke="#d97706" stroke-width="5"/></g>
<g transform="translate(264,0)"><rect x="5" y="11" width="110" height="164" rx="13" fill="url(#nk-gSide)"/>
<rect x="5" y="6" width="110" height="165" rx="13" fill="url(#nk-gFace)"/>
<rect x="6.8" y="8" width="106.4" height="161" rx="11.5" fill="none" stroke="rgba(255,255,255,.6)" stroke-width="1.6"/>
<rect x="9.5" y="11" width="101" height="156" rx="9.5" fill="none" stroke="rgba(115,98,60,.16)" stroke-width="1"/>
<g transform="translate(5.85,15.9) scale(5.7)">
      <path fill="#231815" d="M4.97,8.65c.72,0,2.05-.35,3.99-1.06,1.94-.71,3.19-1.06,3.74-1.06,.84,0,1.66,.16,2.46,.49,.8,.32,1.21,.69,1.21,1.1,0,.22-.11,.43-.34,.63-.23,.2-.49,.31-.77,.31-.1,0-.56-.16-1.38-.47-.83-.31-1.56-.47-2.21-.47-.86,0-2.17,.28-3.92,.83-1.75,.55-2.85,.83-3.31,.83-.84,0-1.44-.19-1.8-.58,.07-.22,.44-.43,1.12-.65,.12,0,.31,.02,.58,.05,.26,.04,.48,.05,.65,.05Z"/>
  <path fill="#231815" d="M5.29,5.59c0-.19,.65-.47,1.94-.83,.1-.02,.26-.06,.5-.11,.43-.12,.78-.22,1.04-.29,.38-.12,.86-.27,1.44-.45,.58-.18,1.04-.32,1.39-.43,.35-.11,.59-.16,.74-.16,.22,0,.32,.05,.32,.14,0,.14-.03,.29-.09,.43-.06,.14-.14,.29-.23,.43-.1,.14-.16,.23-.18,.25-3.65,.96-5.7,1.44-6.15,1.44-.48,0-.72-.14-.72-.43Z"/>
  <path fill="#881c21" d="M8.06,19.76c-.1,0-.29,.06-.58,.18l-.14,.29c-.12,.19-.23,.34-.32,.43-.36-.22-.54-.91-.54-2.09,0-.91,.05-1.57,.14-1.98,.89-.14,1.86-.36,2.93-.65,1.07-.29,1.73-.43,2-.43,.5,0,.76,.17,.76,.5l-.25,.94c-.17,.62-.25,1.27-.25,1.94,0,.38,.02,.79,.07,1.22,.46,.02,.95,.1,1.47,.22,.53,.12,1.07,.36,1.64,.72,.56,.36,.85,.78,.85,1.26,0,.41-.16,.72-.47,.94-.31,.22-.71,.32-1.19,.32-.12,0-.39,.08-.81,.23-.42,.16-.74,.23-.95,.23-.31,0-.88-.16-1.71-.49-.83-.32-1.41-.59-1.74-.81-.12,.05-.25,.13-.38,.23-.13,.11-.23,.16-.31,.16-.12,0-.5-.1-1.15-.29,0,.02,0,.1-.02,.22-.01,.12-.02,.21-.04,.27-.01,.06-.02,.13-.04,.22-.01,.08-.04,.15-.09,.2-.05,.05-.11,.07-.18,.07s-.15-.05-.23-.14c-.08-.1-.16-.22-.22-.38-.06-.16-.12-.31-.18-.45-.06-.14-.11-.3-.16-.47-.05-.17-.08-.28-.11-.32h-.43c-.46,0-.88-.07-1.26-.22-.38-.14-.58-.35-.58-.61,0-.02,0-.06,.02-.11,.01-.05,.02-.1,.02-.14,.22,0,.52,.02,.9,.07,.38,.05,.68,.07,.9,.07h.14c-.02-.19-.07-.46-.14-.81-.07-.35-.13-.64-.18-.86-.05-.23-.07-.4-.07-.52,0-.05,.05-.12,.14-.22,.29,.05,.5,.19,.63,.41,.13,.23,.25,.55,.34,.95,.1,.41,.22,.74,.36,1.01,.34,0,.79-.1,1.37-.29,0-.07,0-.24,.02-.5,.01-.26,.02-.44,.02-.54Zm4.5-4.93c-.72,0-1.79,.21-3.2,.63-1.42,.42-2.35,.63-2.81,.63-1.44,0-2.37-.26-2.81-.79,.43-.26,.76-.4,.97-.4,.24,0,.61,.06,1.1,.18,.49,.12,.9,.18,1.24,.18,.48,0,.8-.05,.97-.14,.17-.1,.25-.31,.25-.65,0-.07-.07-.13-.2-.16-.13-.04-.22-.09-.27-.16,0-.1,.02-.17,.05-.22,.04-.05,.1-.11,.18-.2,.08-.08,.15-.17,.2-.27,.05-.07,.14-.22,.27-.45,.13-.23,.24-.38,.32-.47,.08-.08,.19-.13,.31-.13,.17,0,.25,.12,.25,.36,0,.19-.02,.39-.05,.59-.04,.2-.1,.43-.18,.68-.08,.25-.14,.45-.16,.59,.05,.12,.13,.18,.25,.18,.14,0,.35-.28,.63-.83,.28-.55,.41-.95,.41-1.19,0-.14-.08-.28-.23-.41-.16-.13-.26-.23-.31-.31,.19-.43,.61-.77,1.26-1.01,.48,.17,.72,.61,.72,1.33,0,.24-.1,.53-.31,.86-.2,.34-.32,.65-.34,.94,.19-.02,.46-.07,.79-.14,.34-.07,.67-.13,1.01-.16,.34-.04,.7-.05,1.08-.05,.77,0,1.21,.08,1.33,.25-.17,.34-.43,.59-.79,.76-.31-.02-.96-.04-1.94-.04Zm-5.76,7.01c.1,.24,.18,.43,.25,.58,.34-.07,.72-.2,1.15-.4-.12-.14-.18-.34-.18-.58l-1.22,.4Zm.54-4.75v.65h.07l.07,.04,.65-.11c0-.19,.02-.43,.07-.72l-.86,.14Zm.72,1.19c-.14,.02-.3,.05-.47,.07-.14,0-.22,.01-.23,.04-.01,.02-.02,.07-.02,.14v.14s0,.13,.02,.25c.01,.12,.02,.2,.02,.25,.12,0,.35-.02,.68-.07v-.83Zm.9-1.51c0,.12-.02,.25-.05,.4-.04,.14-.05,.26-.05,.36,.24-.05,.52-.1,.83-.16,.31-.06,.54-.1,.68-.13,0-.12,0-.26,.02-.43,.01-.17,.02-.3,.02-.4-.22,.05-.47,.11-.76,.2-.29,.08-.52,.14-.68,.16Zm-.11,1.37v.79c.34-.02,.81-.13,1.44-.32,0-.36,.01-.64,.04-.83-.53,.17-1.02,.29-1.47,.36Zm.07,1.44v.97c.53-.1,.99-.23,1.4-.4,0-.41-.01-.72-.04-.94-.12,.05-.33,.11-.63,.18-.3,.07-.55,.13-.74,.18Zm.04,1.62c0,.38,.06,.58,.18,.58,.1,0,.2-.02,.31-.05,.11-.04,.25-.09,.43-.16,.18-.07,.35-.13,.52-.18-.05-.26-.06-.46-.04-.58-.14,.02-.61,.16-1.4,.4Zm3.02-.43s.02,.16,.05,.32c.04,.17,.05,.31,.05,.43s-.04,.25-.11,.4c-.46,.31-.9,.47-1.33,.47-.02-.02-.06-.1-.11-.22-.05-.12-.08-.2-.11-.25-.14,.05-.31,.13-.49,.25-.18,.12-.33,.2-.45,.25,.1,.14,.34,.29,.72,.45,.38,.16,.68,.23,.9,.23,.14,0,.28-.03,.41-.09,.13-.06,.28-.15,.43-.27,.16-.12,.28-.2,.38-.25,.12-.05,.35-.08,.7-.11,.35-.02,.61-.09,.79-.2,.18-.11,.27-.29,.27-.56,0-.19-.25-.38-.76-.56-.5-.18-.96-.28-1.37-.31Z"/>
    </g></g>
<g transform="translate(396,0)"><rect x="5" y="11" width="110" height="164" rx="13" fill="url(#nk-gSide)"/>
<rect x="5" y="6" width="110" height="165" rx="13" fill="url(#nk-gFace)"/>
<rect x="6.8" y="8" width="106.4" height="161" rx="11.5" fill="none" stroke="rgba(255,255,255,.6)" stroke-width="1.6"/>
<rect x="9.5" y="11" width="101" height="156" rx="9.5" fill="none" stroke="rgba(115,98,60,.16)" stroke-width="1"/>
<g transform="translate(5.85,15.9) scale(5.7)">
      <path fill="#231815" d="M15.97,5.39c-.3-.28-.87-.53-1.71-.77-1.1-.34-2.23-.55-3.38-.65-.02-.02-.09-.1-.2-.22-.11-.12-.22-.23-.32-.32-.11-.1-.2-.14-.27-.14s-.13,.04-.18,.11c-.05,.07-.1,.19-.14,.36-.05,.17-.08,.28-.11,.32-1.2,.24-3.12,.89-5.76,1.94-.96-.36-1.55-.54-1.76-.54-.17,0-.3,.08-.4,.25,.36,.53,.68,.97,.97,1.31,.29,.35,.51,.61,.67,.77,.16,.17,.42,.42,.79,.76,.37,.34,.68,.62,.92,.86,.05,.05,.14,.14,.27,.29,.13,.14,.23,.25,.29,.32,.06,.07,.15,.16,.27,.25,.12,.1,.23,.16,.34,.2,.11,.04,.22,.05,.34,.05,.19,0,.65-.2,1.37-.61,.72-.41,1.44-.61,2.16-.61,.46,0,.85,.04,1.17,.13,.32,.08,.62,.19,.88,.32,.26,.13,.47,.21,.61,.23,.34-.22,.74-.48,1.21-.79,.47-.31,.99-.74,1.56-1.28,.58-.54,.86-.97,.86-1.28,0-.58-.15-1-.45-1.28Zm-8.87,3.83c-.46-.48-.86-.9-1.21-1.28-.35-.37-.58-.61-.68-.72-.11-.11-.2-.22-.29-.32-.08-.11-.17-.25-.27-.41,.1-.05,.34-.07,.72-.07,.17,0,.34-.02,.5-.05,.17-.04,.35-.09,.56-.16,.2-.07,.38-.12,.52-.14,.12,.1,.18,.26,.18,.5,0,.12,.06,.46,.18,1.01,.12,.55,.19,1.03,.22,1.44l-.43,.22Zm2.12-.65c-.07,.02-.2,.06-.38,.11-.18,.05-.32,.08-.41,.11,.17-.89,.25-1.55,.25-1.98,0-.12-.11-.53-.32-1.22,.36-.22,.73-.32,1.12-.32-.07,.67-.16,1.78-.25,3.31Zm4.32-.86c-.38,.65-.65,.97-.79,.97-.02,0-.17-.02-.43-.05-.26-.04-.58-.07-.95-.11-.37-.04-.69-.05-.95-.05,.1-.5,.28-1.12,.54-1.83,.26-.72,.4-1.16,.4-1.33,0-.02,0-.06-.02-.11-.01-.05-.02-.08-.02-.11,.43,.05,1.01,.25,1.73,.61,.72,.36,1.08,.64,1.08,.83,0,.14-.19,.54-.58,1.19Z"/>
  <path fill="#881c21" d="M8.05,19.76c-.1,0-.29,.06-.58,.18l-.14,.29c-.12,.19-.23,.34-.32,.43-.36-.22-.54-.91-.54-2.09,0-.91,.05-1.57,.14-1.98,.89-.14,1.86-.36,2.93-.65,1.07-.29,1.73-.43,2-.43,.5,0,.76,.17,.76,.5l-.25,.94c-.17,.62-.25,1.27-.25,1.94,0,.38,.02,.79,.07,1.22,.46,.02,.95,.1,1.47,.22,.53,.12,1.07,.36,1.64,.72,.56,.36,.85,.78,.85,1.26,0,.41-.16,.72-.47,.94-.31,.22-.71,.32-1.19,.32-.12,0-.39,.08-.81,.23-.42,.16-.74,.23-.95,.23-.31,0-.88-.16-1.71-.49-.83-.32-1.41-.59-1.74-.81-.12,.05-.25,.13-.38,.23-.13,.11-.23,.16-.31,.16-.12,0-.5-.1-1.15-.29,0,.02,0,.1-.02,.22-.01,.12-.02,.21-.04,.27-.01,.06-.02,.13-.04,.22-.01,.08-.04,.15-.09,.2-.05,.05-.11,.07-.18,.07s-.15-.05-.23-.14c-.08-.1-.16-.22-.22-.38-.06-.16-.12-.31-.18-.45-.06-.14-.11-.3-.16-.47-.05-.17-.08-.28-.11-.32h-.43c-.46,0-.88-.07-1.26-.22-.38-.14-.58-.35-.58-.61,0-.02,0-.06,.02-.11,.01-.05,.02-.1,.02-.14,.22,0,.52,.02,.9,.07,.38,.05,.68,.07,.9,.07h.14c-.02-.19-.07-.46-.14-.81-.07-.35-.13-.64-.18-.86-.05-.23-.07-.4-.07-.52,0-.05,.05-.12,.14-.22,.29,.05,.5,.19,.63,.41,.13,.23,.25,.55,.34,.95,.1,.41,.22,.74,.36,1.01,.34,0,.79-.1,1.37-.29,0-.07,0-.24,.02-.5,.01-.26,.02-.44,.02-.54Zm4.5-4.93c-.72,0-1.79,.21-3.2,.63-1.42,.42-2.35,.63-2.81,.63-1.44,0-2.37-.26-2.81-.79,.43-.26,.76-.4,.97-.4,.24,0,.61,.06,1.1,.18,.49,.12,.9,.18,1.24,.18,.48,0,.8-.05,.97-.14,.17-.1,.25-.31,.25-.65,0-.07-.07-.13-.2-.16-.13-.04-.22-.09-.27-.16,0-.1,.02-.17,.05-.22,.04-.05,.1-.11,.18-.2,.08-.08,.15-.17,.2-.27,.05-.07,.14-.22,.27-.45,.13-.23,.24-.38,.32-.47,.08-.08,.19-.13,.31-.13,.17,0,.25,.12,.25,.36,0,.19-.02,.39-.05,.59-.04,.2-.1,.43-.18,.68-.08,.25-.14,.45-.16,.59,.05,.12,.13,.18,.25,.18,.14,0,.35-.28,.63-.83,.28-.55,.41-.95,.41-1.19,0-.14-.08-.28-.23-.41-.16-.13-.26-.23-.31-.31,.19-.43,.61-.77,1.26-1.01,.48,.17,.72,.61,.72,1.33,0,.24-.1,.53-.31,.86-.2,.34-.32,.65-.34,.94,.19-.02,.46-.07,.79-.14,.34-.07,.67-.13,1.01-.16,.34-.04,.7-.05,1.08-.05,.77,0,1.21,.08,1.33,.25-.17,.34-.43,.59-.79,.76-.31-.02-.96-.04-1.94-.04Zm-5.76,7.01c.1,.24,.18,.43,.25,.58,.34-.07,.72-.2,1.15-.4-.12-.14-.18-.34-.18-.58l-1.22,.4Zm.54-4.75v.65h.07l.07,.04,.65-.11c0-.19,.02-.43,.07-.72l-.86,.14Zm.72,1.19c-.14,.02-.3,.05-.47,.07-.14,0-.22,.01-.23,.04-.01,.02-.02,.07-.02,.14v.14s0,.13,.02,.25c.01,.12,.02,.2,.02,.25,.12,0,.35-.02,.68-.07v-.83Zm.9-1.51c0,.12-.02,.25-.05,.4-.04,.14-.05,.26-.05,.36,.24-.05,.52-.1,.83-.16,.31-.06,.54-.1,.68-.13,0-.12,0-.26,.02-.43,.01-.17,.02-.3,.02-.4-.22,.05-.47,.11-.76,.2-.29,.08-.52,.14-.68,.16Zm-.11,1.37v.79c.34-.02,.81-.13,1.44-.32,0-.36,.01-.64,.04-.83-.53,.17-1.02,.29-1.47,.36Zm.07,1.44v.97c.53-.1,.99-.23,1.4-.4,0-.41-.01-.72-.04-.94-.12,.05-.33,.11-.63,.18-.3,.07-.55,.13-.74,.18Zm.04,1.62c0,.38,.06,.58,.18,.58,.1,0,.2-.02,.31-.05,.11-.04,.25-.09,.43-.16,.18-.07,.35-.13,.52-.18-.05-.26-.06-.46-.04-.58-.14,.02-.61,.16-1.4,.4Zm3.02-.43s.02,.16,.05,.32c.04,.17,.05,.31,.05,.43s-.04,.25-.11,.4c-.46,.31-.9,.47-1.33,.47-.02-.02-.06-.1-.11-.22-.05-.12-.08-.2-.11-.25-.14,.05-.31,.13-.49,.25-.18,.12-.33,.2-.45,.25,.1,.14,.34,.29,.72,.45,.38,.16,.68,.23,.9,.23,.14,0,.28-.03,.41-.09,.13-.06,.28-.15,.43-.27,.16-.12,.28-.2,.38-.25,.12-.05,.35-.08,.7-.11,.35-.02,.61-.09,.79-.2,.18-.11,.27-.29,.27-.56,0-.19-.25-.38-.76-.56-.5-.18-.96-.28-1.37-.31Z"/>
    </g></g>
<g transform="translate(528,0)"><rect x="5" y="11" width="110" height="164" rx="13" fill="url(#nk-gSide)"/>
<rect x="5" y="6" width="110" height="165" rx="13" fill="url(#nk-gFace)"/>
<rect x="6.8" y="8" width="106.4" height="161" rx="11.5" fill="none" stroke="rgba(255,255,255,.6)" stroke-width="1.6"/>
<rect x="9.5" y="11" width="101" height="156" rx="9.5" fill="none" stroke="rgba(115,98,60,.16)" stroke-width="1"/>
<g transform="translate(5.85,15.9) scale(5.7)">
      <path fill="#231815" d="M16.05,9.22c-.36-.24-.95-.52-1.76-.83-.82-.31-1.39-.55-1.73-.72-.1-.74-.14-1.23-.14-1.47,0-.07,.04-.25,.11-.54,.07-.29,.06-.47-.04-.54-.14-.34-.46-.53-.94-.58-.05,.31-.16,.54-.32,.68-.17,.14-.64,.34-1.4,.58,.12-.84,.56-1.45,1.33-1.83,1.01-.48,1.69-.72,2.05-.72,.22,0,.53,.06,.94,.18,.41,.12,.71,.18,.9,.18,.46,0,.68-.31,.68-.94,0-.48-.86-.72-2.59-.72-.02,0-.69,.29-2,.86-1.31,.58-2.24,.86-2.79,.86-.12-.19-.31-.37-.56-.54-.25-.17-.4-.28-.45-.32-.07,.07-.2,.16-.38,.27-.18,.11-.32,.21-.41,.31-.07,.1-.15,.25-.23,.45-.08,.2-.2,.38-.34,.52,.02,.05,.08,.14,.18,.27,.1,.13,.16,.25,.2,.34,.04,.1,.05,.2,.05,.32,0,.72-.52,1.56-1.55,2.52-1.03,.96-2.06,1.69-3.09,2.19,.07,.1,.2,.14,.4,.14,.38,0,.99-.25,1.83-.76,.84-.5,1.56-1.05,2.16-1.65,.17,.07,.25,.22,.25,.43,0,.17-.06,.38-.18,.65-.12,.26-.18,.48-.18,.65,0,.38,.12,.71,.36,.97,.24,.26,.56,.4,.97,.4,.14,0,.23-.02,.25-.07,0-.14,.05-.27,.14-.38,.1-.11,.26-.22,.49-.32,.23-.11,.46-.2,.7-.29,.24-.08,.59-.2,1.06-.36,.47-.16,.9-.32,1.31-.49,0,.17-.01,.31-.04,.43-.02,.12-.04,.19-.04,.22,0,.1,.08,.14,.25,.14,.05,0,.16-.02,.32-.05,.17-.04,.32-.05,.47-.05,.7,0,1.41,.23,2.16,.7,.74,.47,1.19,.7,1.33,.7,.22,0,.4-.09,.56-.27,.16-.18,.23-.39,.23-.63,0-.36-.18-.66-.54-.9Zm-7.84-3.67c.07-.29,.11-.61,.13-.95,.01-.35,.02-.55,.02-.59,.24,0,.47,.05,.7,.16,.23,.11,.34,.26,.34,.45,0,.17-.18,.68-.54,1.55-.29,.17-.54,.25-.76,.25-.1,0-.17-.11-.22-.32,.14-.07,.25-.25,.32-.54Zm-.5,3.35c-.14,.05-.28,.02-.4-.07,0-.02,0-.05,.02-.09,.01-.04,.02-.07,.02-.09,0-.1-.04-.29-.13-.59-.08-.3-.13-.55-.13-.74,0-.14,.01-.25,.04-.32,.12,.17,.43,.25,.94,.25,.05,0,.11,0,.18-.02,.07-.01,.12-.02,.14-.02-.19,.86-.42,1.43-.68,1.69Zm3.63-.86c-1.1,.58-1.93,.86-2.48,.86,0-.55,.2-1.2,.61-1.94,.17-.07,.37-.18,.59-.32,.23-.14,.42-.26,.58-.36,.16-.1,.27-.14,.34-.14,.24,0,.36,.23,.36,.68,0,.05,0,.16-.02,.34-.01,.18-.02,.32-.02,.41,0,.22,.01,.37,.04,.47Z"/>
  <path fill="#881c21" d="M8.04,19.76c-.1,0-.29,.06-.58,.18l-.14,.29c-.12,.19-.23,.34-.32,.43-.36-.22-.54-.91-.54-2.09,0-.91,.05-1.57,.14-1.98,.89-.14,1.86-.36,2.93-.65,1.07-.29,1.73-.43,2-.43,.5,0,.76,.17,.76,.5l-.25,.94c-.17,.62-.25,1.27-.25,1.94,0,.38,.02,.79,.07,1.22,.46,.02,.95,.1,1.47,.22,.53,.12,1.07,.36,1.64,.72,.56,.36,.85,.78,.85,1.26,0,.41-.16,.72-.47,.94-.31,.22-.71,.32-1.19,.32-.12,0-.39,.08-.81,.23-.42,.16-.74,.23-.95,.23-.31,0-.88-.16-1.71-.49-.83-.32-1.41-.59-1.74-.81-.12,.05-.25,.13-.38,.23-.13,.11-.23,.16-.31,.16-.12,0-.5-.1-1.15-.29,0,.02,0,.1-.02,.22-.01,.12-.02,.21-.04,.27-.01,.06-.02,.13-.04,.22-.01,.08-.04,.15-.09,.2-.05,.05-.11,.07-.18,.07s-.15-.05-.23-.14c-.08-.1-.16-.22-.22-.38-.06-.16-.12-.31-.18-.45-.06-.14-.11-.3-.16-.47-.05-.17-.08-.28-.11-.32h-.43c-.46,0-.88-.07-1.26-.22-.38-.14-.58-.35-.58-.61,0-.02,0-.06,.02-.11,.01-.05,.02-.1,.02-.14,.22,0,.52,.02,.9,.07,.38,.05,.68,.07,.9,.07h.14c-.02-.19-.07-.46-.14-.81-.07-.35-.13-.64-.18-.86-.05-.23-.07-.4-.07-.52,0-.05,.05-.12,.14-.22,.29,.05,.5,.19,.63,.41,.13,.23,.25,.55,.34,.95,.1,.41,.22,.74,.36,1.01,.34,0,.79-.1,1.37-.29,0-.07,0-.24,.02-.5,.01-.26,.02-.44,.02-.54Zm4.5-4.93c-.72,0-1.79,.21-3.2,.63-1.42,.42-2.35,.63-2.81,.63-1.44,0-2.37-.26-2.81-.79,.43-.26,.76-.4,.97-.4,.24,0,.61,.06,1.1,.18,.49,.12,.9,.18,1.24,.18,.48,0,.8-.05,.97-.14,.17-.1,.25-.31,.25-.65,0-.07-.07-.13-.2-.16-.13-.04-.22-.09-.27-.16,0-.1,.02-.17,.05-.22,.04-.05,.1-.11,.18-.2,.08-.08,.15-.17,.2-.27,.05-.07,.14-.22,.27-.45,.13-.23,.24-.38,.32-.47,.08-.08,.19-.13,.31-.13,.17,0,.25,.12,.25,.36,0,.19-.02,.39-.05,.59-.04,.2-.1,.43-.18,.68-.08,.25-.14,.45-.16,.59,.05,.12,.13,.18,.25,.18,.14,0,.35-.28,.63-.83,.28-.55,.41-.95,.41-1.19,0-.14-.08-.28-.23-.41-.16-.13-.26-.23-.31-.31,.19-.43,.61-.77,1.26-1.01,.48,.17,.72,.61,.72,1.33,0,.24-.1,.53-.31,.86-.2,.34-.32,.65-.34,.94,.19-.02,.46-.07,.79-.14,.34-.07,.67-.13,1.01-.16,.34-.04,.7-.05,1.08-.05,.77,0,1.21,.08,1.33,.25-.17,.34-.43,.59-.79,.76-.31-.02-.96-.04-1.94-.04Zm-5.76,7.01c.1,.24,.18,.43,.25,.58,.34-.07,.72-.2,1.15-.4-.12-.14-.18-.34-.18-.58l-1.22,.4Zm.54-4.75v.65h.07l.07,.04,.65-.11c0-.19,.02-.43,.07-.72l-.86,.14Zm.72,1.19c-.14,.02-.3,.05-.47,.07-.14,0-.22,.01-.23,.04-.01,.02-.02,.07-.02,.14v.14s0,.13,.02,.25c.01,.12,.02,.2,.02,.25,.12,0,.35-.02,.68-.07v-.83Zm.9-1.51c0,.12-.02,.25-.05,.4-.04,.14-.05,.26-.05,.36,.24-.05,.52-.1,.83-.16,.31-.06,.54-.1,.68-.13,0-.12,0-.26,.02-.43,.01-.17,.02-.3,.02-.4-.22,.05-.47,.11-.76,.2-.29,.08-.52,.14-.68,.16Zm-.11,1.37v.79c.34-.02,.81-.13,1.44-.32,0-.36,.01-.64,.04-.83-.53,.17-1.02,.29-1.47,.36Zm.07,1.44v.97c.53-.1,.99-.23,1.4-.4,0-.41-.01-.72-.04-.94-.12,.05-.33,.11-.63,.18-.3,.07-.55,.13-.74,.18Zm.04,1.62c0,.38,.06,.58,.18,.58,.1,0,.2-.02,.31-.05,.11-.04,.25-.09,.43-.16,.18-.07,.35-.13,.52-.18-.05-.26-.06-.46-.04-.58-.14,.02-.61,.16-1.4,.4Zm3.02-.43s.02,.16,.05,.32c.04,.17,.05,.31,.05,.43s-.04,.25-.11,.4c-.46,.31-.9,.47-1.33,.47-.02-.02-.06-.1-.11-.22-.05-.12-.08-.2-.11-.25-.14,.05-.31,.13-.49,.25-.18,.12-.33,.2-.45,.25,.1,.14,.34,.29,.72,.45,.38,.16,.68,.23,.9,.23,.14,0,.28-.03,.41-.09,.13-.06,.28-.15,.43-.27,.16-.12,.28-.2,.38-.25,.12-.05,.35-.08,.7-.11,.35-.02,.61-.09,.79-.2,.18-.11,.27-.29,.27-.56,0-.19-.25-.38-.76-.56-.5-.18-.96-.28-1.37-.31Z"/>
    </g></g>
<g transform="translate(660,0)"><rect x="5" y="11" width="110" height="164" rx="13" fill="url(#nk-gSide)"/>
<rect x="5" y="6" width="110" height="165" rx="13" fill="url(#nk-gFace)"/>
<rect x="6.8" y="8" width="106.4" height="161" rx="11.5" fill="none" stroke="rgba(255,255,255,.6)" stroke-width="1.6"/>
<rect x="9.5" y="11" width="101" height="156" rx="9.5" fill="none" stroke="rgba(115,98,60,.16)" stroke-width="1"/>
<g transform="translate(5.85,15.9) scale(5.7)">
      <path fill="#231815" d="M6.48,8.22c.05-.07,.1-.16,.16-.25,.06-.1,.11-.18,.14-.25,.04-.07,.09-.14,.16-.22,.07-.07,.14-.13,.22-.18,.12-.1,.23-.16,.34-.18,.11-.02,.25-.04,.41-.05,.17-.01,.29-.03,.36-.05,.43,.24,.89,.67,1.37,1.3-.02,.12-.07,.22-.14,.31-.07,.08-.19,.21-.34,.38-.16,.17-.29,.34-.41,.5-.34,0-1.11,.2-2.32,.59-1.21,.4-2.02,.59-2.43,.59-.6,0-.97-.07-1.12-.22,.12-.12,.37-.22,.76-.31,.38-.08,.66-.16,.83-.23,1.51-.55,2.27-.95,2.27-1.19,0-.19-.08-.37-.25-.54Z"/>
  <path fill="#231815" d="M11.33,5.52s-.89,.28-2.59,.83c-1.7,.55-2.77,.83-3.2,.83-.19,0-.48-.08-.86-.23-.38-.16-.58-.27-.58-.34,0-.12,.16-.23,.49-.34,.32-.11,.57-.16,.74-.16,.05,0,.15,0,.31,.02,.16,.01,.27,.02,.34,.02,.6,0,1.25-.13,1.94-.4,.07-.26,.1-.41,.07-.43-.12-.22-.4-.52-.83-.9,0-.6-.06-1.04-.18-1.33,.1-.1,.22-.26,.36-.49,.14-.23,.25-.37,.32-.41,.07-.07,.14-.12,.22-.14,.07-.02,.19-.04,.36-.04s.3-.01,.4-.04c.65,.7,.97,1.24,.97,1.62,0,.31-.11,.62-.32,.94-.22,.31-.32,.53-.32,.65,0,.05,.02,.1,.05,.16,.04,.06,.05,.1,.05,.13,.62-.22,1.22-.44,1.8-.68,.58-.24,1-.41,1.26-.52,.26-.11,.47-.16,.61-.16,.12,0,.28,.04,.49,.11,.2,.07,.46,.17,.77,.29,.31,.12,.56,.22,.76,.29,.05,.02,.14,.07,.27,.13,.13,.06,.22,.1,.27,.13,.05,.02,.13,.06,.23,.11,.11,.05,.18,.09,.22,.13,.04,.04,.08,.08,.14,.13,.06,.05,.1,.1,.13,.14,.02,.05,.05,.1,.07,.16,.02,.06,.04,.13,.04,.2,0,.29-.08,.54-.25,.76-.17,.22-.37,.32-.61,.32-.14,0-.73-.24-1.76-.72-1.03-.48-1.75-.72-2.16-.72Z"/>
  <path fill="#231815" d="M9.64,7.28c.89,0,1.83,.31,2.82,.92,.99,.61,1.49,1.15,1.49,1.6,0,.26-.07,.53-.22,.79-.14,.26-.28,.42-.4,.47-.58-.31-1.27-.88-2.09-1.69-.82-.81-1.36-1.51-1.62-2.09Z"/>
  <path fill="#881c21" d="M8.04,19.76c-.1,0-.29,.06-.58,.18l-.14,.29c-.12,.19-.23,.34-.32,.43-.36-.22-.54-.91-.54-2.09,0-.91,.05-1.57,.14-1.98,.89-.14,1.86-.36,2.93-.65,1.07-.29,1.73-.43,2-.43,.5,0,.76,.17,.76,.5l-.25,.94c-.17,.62-.25,1.27-.25,1.94,0,.38,.02,.79,.07,1.22,.46,.02,.95,.1,1.47,.22,.53,.12,1.07,.36,1.64,.72,.56,.36,.85,.78,.85,1.26,0,.41-.16,.72-.47,.94-.31,.22-.71,.32-1.19,.32-.12,0-.39,.08-.81,.23-.42,.16-.74,.23-.95,.23-.31,0-.88-.16-1.71-.49-.83-.32-1.41-.59-1.74-.81-.12,.05-.25,.13-.38,.23-.13,.11-.23,.16-.31,.16-.12,0-.5-.1-1.15-.29,0,.02,0,.1-.02,.22-.01,.12-.02,.21-.04,.27-.01,.06-.02,.13-.04,.22-.01,.08-.04,.15-.09,.2-.05,.05-.11,.07-.18,.07s-.15-.05-.23-.14c-.08-.1-.16-.22-.22-.38-.06-.16-.12-.31-.18-.45-.06-.14-.11-.3-.16-.47-.05-.17-.08-.28-.11-.32h-.43c-.46,0-.88-.07-1.26-.22-.38-.14-.58-.35-.58-.61,0-.02,0-.06,.02-.11,.01-.05,.02-.1,.02-.14,.22,0,.52,.02,.9,.07,.38,.05,.68,.07,.9,.07h.14c-.02-.19-.07-.46-.14-.81-.07-.35-.13-.64-.18-.86-.05-.23-.07-.4-.07-.52,0-.05,.05-.12,.14-.22,.29,.05,.5,.19,.63,.41,.13,.23,.25,.55,.34,.95,.1,.41,.22,.74,.36,1.01,.34,0,.79-.1,1.37-.29,0-.07,0-.24,.02-.5,.01-.26,.02-.44,.02-.54Zm4.5-4.93c-.72,0-1.79,.21-3.2,.63-1.42,.42-2.35,.63-2.81,.63-1.44,0-2.37-.26-2.81-.79,.43-.26,.76-.4,.97-.4,.24,0,.61,.06,1.1,.18,.49,.12,.9,.18,1.24,.18,.48,0,.8-.05,.97-.14,.17-.1,.25-.31,.25-.65,0-.07-.07-.13-.2-.16-.13-.04-.22-.09-.27-.16,0-.1,.02-.17,.05-.22,.04-.05,.1-.11,.18-.2,.08-.08,.15-.17,.2-.27,.05-.07,.14-.22,.27-.45,.13-.23,.24-.38,.32-.47,.08-.08,.19-.13,.31-.13,.17,0,.25,.12,.25,.36,0,.19-.02,.39-.05,.59-.04,.2-.1,.43-.18,.68-.08,.25-.14,.45-.16,.59,.05,.12,.13,.18,.25,.18,.14,0,.35-.28,.63-.83,.28-.55,.41-.95,.41-1.19,0-.14-.08-.28-.23-.41-.16-.13-.26-.23-.31-.31,.19-.43,.61-.77,1.26-1.01,.48,.17,.72,.61,.72,1.33,0,.24-.1,.53-.31,.86-.2,.34-.32,.65-.34,.94,.19-.02,.46-.07,.79-.14,.34-.07,.67-.13,1.01-.16,.34-.04,.7-.05,1.08-.05,.77,0,1.21,.08,1.33,.25-.17,.34-.43,.59-.79,.76-.31-.02-.96-.04-1.94-.04Zm-5.76,7.01c.1,.24,.18,.43,.25,.58,.34-.07,.72-.2,1.15-.4-.12-.14-.18-.34-.18-.58l-1.22,.4Zm.54-4.75v.65h.07l.07,.04,.65-.11c0-.19,.02-.43,.07-.72l-.86,.14Zm.72,1.19c-.14,.02-.3,.05-.47,.07-.14,0-.22,.01-.23,.04-.01,.02-.02,.07-.02,.14v.14s0,.13,.02,.25c.01,.12,.02,.2,.02,.25,.12,0,.35-.02,.68-.07v-.83Zm.9-1.51c0,.12-.02,.25-.05,.4-.04,.14-.05,.26-.05,.36,.24-.05,.52-.1,.83-.16,.31-.06,.54-.1,.68-.13,0-.12,0-.26,.02-.43,.01-.17,.02-.3,.02-.4-.22,.05-.47,.11-.76,.2-.29,.08-.52,.14-.68,.16Zm-.11,1.37v.79c.34-.02,.81-.13,1.44-.32,0-.36,.01-.64,.04-.83-.53,.17-1.02,.29-1.47,.36Zm.07,1.44v.97c.53-.1,.99-.23,1.4-.4,0-.41-.01-.72-.04-.94-.12,.05-.33,.11-.63,.18-.3,.07-.55,.13-.74,.18Zm.04,1.62c0,.38,.06,.58,.18,.58,.1,0,.2-.02,.31-.05,.11-.04,.25-.09,.43-.16,.18-.07,.35-.13,.52-.18-.05-.26-.06-.46-.04-.58-.14,.02-.61,.16-1.4,.4Zm3.02-.43s.02,.16,.05,.32c.04,.17,.05,.31,.05,.43s-.04,.25-.11,.4c-.46,.31-.9,.47-1.33,.47-.02-.02-.06-.1-.11-.22-.05-.12-.08-.2-.11-.25-.14,.05-.31,.13-.49,.25-.18,.12-.33,.2-.45,.25,.1,.14,.34,.29,.72,.45,.38,.16,.68,.23,.9,.23,.14,0,.28-.03,.41-.09,.13-.06,.28-.15,.43-.27,.16-.12,.28-.2,.38-.25,.12-.05,.35-.08,.7-.11,.35-.02,.61-.09,.79-.2,.18-.11,.27-.29,.27-.56,0-.19-.25-.38-.76-.56-.5-.18-.96-.28-1.37-.31Z"/>
    </g></g>
<g transform="translate(792,0)"><rect x="5" y="11" width="110" height="164" rx="13" fill="url(#nk-gSide)"/>
<rect x="5" y="6" width="110" height="165" rx="13" fill="url(#nk-gFace)"/>
<rect x="6.8" y="8" width="106.4" height="161" rx="11.5" fill="none" stroke="rgba(255,255,255,.6)" stroke-width="1.6"/>
<rect x="9.5" y="11" width="101" height="156" rx="9.5" fill="none" stroke="rgba(115,98,60,.16)" stroke-width="1"/>
<circle cx="39" cy="62" r="17" fill="rgba(0,0,0,.18)"/>
<circle cx="38" cy="60" r="17" fill="#2d6b3a"/>
<circle cx="38" cy="60" r="13.5" fill="#f5f5f0"/>
<circle cx="38" cy="60" r="10.0" fill="#2d6b3a"/>
<circle cx="38" cy="60" r="6.0" fill="#f5f5f0"/>
<circle cx="38" cy="60" r="3.5" fill="#1a4a25"/>
<circle cx="83" cy="62" r="17" fill="rgba(0,0,0,.18)"/>
<circle cx="82" cy="60" r="17" fill="#2a2a2a"/>
<circle cx="82" cy="60" r="13.5" fill="#f5f5f0"/>
<circle cx="82" cy="60" r="10.0" fill="#2a2a2a"/>
<circle cx="82" cy="60" r="6.0" fill="#f5f5f0"/>
<circle cx="82" cy="60" r="3.5" fill="#111111"/>
<circle cx="39" cy="130" r="17" fill="rgba(0,0,0,.18)"/>
<circle cx="38" cy="128" r="17" fill="#2a2a2a"/>
<circle cx="38" cy="128" r="13.5" fill="#f5f5f0"/>
<circle cx="38" cy="128" r="10.0" fill="#2a2a2a"/>
<circle cx="38" cy="128" r="6.0" fill="#f5f5f0"/>
<circle cx="38" cy="128" r="3.5" fill="#111111"/>
<circle cx="83" cy="130" r="17" fill="rgba(0,0,0,.18)"/>
<circle cx="82" cy="128" r="17" fill="#2d6b3a"/>
<circle cx="82" cy="128" r="13.5" fill="#f5f5f0"/>
<circle cx="82" cy="128" r="10.0" fill="#2d6b3a"/>
<circle cx="82" cy="128" r="6.0" fill="#f5f5f0"/>
<circle cx="82" cy="128" r="3.5" fill="#1a4a25"/></g>
<g transform="translate(924,0)"><rect x="5" y="11" width="110" height="164" rx="13" fill="url(#nk-gSide)"/>
<rect x="5" y="6" width="110" height="165" rx="13" fill="url(#nk-gFace)"/>
<rect x="6.8" y="8" width="106.4" height="161" rx="11.5" fill="none" stroke="rgba(255,255,255,.6)" stroke-width="1.6"/>
<rect x="9.5" y="11" width="101" height="156" rx="9.5" fill="none" stroke="rgba(115,98,60,.16)" stroke-width="1"/>
<circle cx="39" cy="58" r="17" fill="rgba(0,0,0,.18)"/>
<circle cx="38" cy="56" r="17" fill="#2d6b3a"/>
<circle cx="38" cy="56" r="13.5" fill="#f5f5f0"/>
<circle cx="38" cy="56" r="10.0" fill="#2d6b3a"/>
<circle cx="38" cy="56" r="6.0" fill="#f5f5f0"/>
<circle cx="38" cy="56" r="3.5" fill="#1a4a25"/>
<circle cx="83" cy="58" r="17" fill="rgba(0,0,0,.18)"/>
<circle cx="82" cy="56" r="17" fill="#2a2a2a"/>
<circle cx="82" cy="56" r="13.5" fill="#f5f5f0"/>
<circle cx="82" cy="56" r="10.0" fill="#2a2a2a"/>
<circle cx="82" cy="56" r="6.0" fill="#f5f5f0"/>
<circle cx="82" cy="56" r="3.5" fill="#111111"/>
<circle cx="61" cy="96" r="17" fill="rgba(0,0,0,.18)"/>
<circle cx="60" cy="94" r="17" fill="#a83226"/>
<circle cx="60" cy="94" r="13.5" fill="#f5f5f0"/>
<circle cx="60" cy="94" r="10.0" fill="#a83226"/>
<circle cx="60" cy="94" r="6.0" fill="#f5f5f0"/>
<circle cx="60" cy="94" r="3.5" fill="#701a14"/>
<circle cx="39" cy="134" r="17" fill="rgba(0,0,0,.18)"/>
<circle cx="38" cy="132" r="17" fill="#2a2a2a"/>
<circle cx="38" cy="132" r="13.5" fill="#f5f5f0"/>
<circle cx="38" cy="132" r="10.0" fill="#2a2a2a"/>
<circle cx="38" cy="132" r="6.0" fill="#f5f5f0"/>
<circle cx="38" cy="132" r="3.5" fill="#111111"/>
<circle cx="83" cy="134" r="17" fill="rgba(0,0,0,.18)"/>
<circle cx="82" cy="132" r="17" fill="#2d6b3a"/>
<circle cx="82" cy="132" r="13.5" fill="#f5f5f0"/>
<circle cx="82" cy="132" r="10.0" fill="#2d6b3a"/>
<circle cx="82" cy="132" r="6.0" fill="#f5f5f0"/>
<circle cx="82" cy="132" r="3.5" fill="#1a4a25"/></g>
<g transform="translate(1056,0)"><rect x="5" y="11" width="110" height="164" rx="13" fill="url(#nk-gSide)"/>
<rect x="5" y="6" width="110" height="165" rx="13" fill="url(#nk-gFace)"/>
<rect x="6.8" y="8" width="106.4" height="161" rx="11.5" fill="none" stroke="rgba(255,255,255,.6)" stroke-width="1.6"/>
<rect x="9.5" y="11" width="101" height="156" rx="9.5" fill="none" stroke="rgba(115,98,60,.16)" stroke-width="1"/>
<circle cx="39" cy="52" r="17" fill="rgba(0,0,0,.18)"/>
<circle cx="38" cy="50" r="17" fill="#2d6b3a"/>
<circle cx="38" cy="50" r="13.5" fill="#f5f5f0"/>
<circle cx="38" cy="50" r="10.0" fill="#2d6b3a"/>
<circle cx="38" cy="50" r="6.0" fill="#f5f5f0"/>
<circle cx="38" cy="50" r="3.5" fill="#1a4a25"/>
<circle cx="83" cy="52" r="17" fill="rgba(0,0,0,.18)"/>
<circle cx="82" cy="50" r="17" fill="#2d6b3a"/>
<circle cx="82" cy="50" r="13.5" fill="#f5f5f0"/>
<circle cx="82" cy="50" r="10.0" fill="#2d6b3a"/>
<circle cx="82" cy="50" r="6.0" fill="#f5f5f0"/>
<circle cx="82" cy="50" r="3.5" fill="#1a4a25"/>
<circle cx="39" cy="96" r="17" fill="rgba(0,0,0,.18)"/>
<circle cx="38" cy="94" r="17" fill="#a83226"/>
<circle cx="38" cy="94" r="13.5" fill="#f5f5f0"/>
<circle cx="38" cy="94" r="10.0" fill="#a83226"/>
<circle cx="38" cy="94" r="6.0" fill="#f5f5f0"/>
<circle cx="38" cy="94" r="3.5" fill="#701a14"/>
<circle cx="83" cy="96" r="17" fill="rgba(0,0,0,.18)"/>
<circle cx="82" cy="94" r="17" fill="#a83226"/>
<circle cx="82" cy="94" r="13.5" fill="#f5f5f0"/>
<circle cx="82" cy="94" r="10.0" fill="#a83226"/>
<circle cx="82" cy="94" r="6.0" fill="#f5f5f0"/>
<circle cx="82" cy="94" r="3.5" fill="#701a14"/>
<circle cx="39" cy="140" r="17" fill="rgba(0,0,0,.18)"/>
<circle cx="38" cy="138" r="17" fill="#a83226"/>
<circle cx="38" cy="138" r="13.5" fill="#f5f5f0"/>
<circle cx="38" cy="138" r="10.0" fill="#a83226"/>
<circle cx="38" cy="138" r="6.0" fill="#f5f5f0"/>
<circle cx="38" cy="138" r="3.5" fill="#701a14"/>
<circle cx="83" cy="140" r="17" fill="rgba(0,0,0,.18)"/>
<circle cx="82" cy="138" r="17" fill="#a83226"/>
<circle cx="82" cy="138" r="13.5" fill="#f5f5f0"/>
<circle cx="82" cy="138" r="10.0" fill="#a83226"/>
<circle cx="82" cy="138" r="6.0" fill="#f5f5f0"/>
<circle cx="82" cy="138" r="3.5" fill="#701a14"/></g>
<g transform="translate(1188,0)"><rect x="5" y="11" width="110" height="164" rx="13" fill="url(#nk-gSide)"/>
<rect x="5" y="6" width="110" height="165" rx="13" fill="url(#nk-gFace)"/>
<rect x="6.8" y="8" width="106.4" height="161" rx="11.5" fill="none" stroke="rgba(255,255,255,.6)" stroke-width="1.6"/>
<rect x="9.5" y="11" width="101" height="156" rx="9.5" fill="none" stroke="rgba(115,98,60,.16)" stroke-width="1"/>
<circle cx="33" cy="46" r="14" fill="rgba(0,0,0,.18)"/>
<circle cx="32" cy="44" r="14" fill="#2a2a2a"/>
<circle cx="32" cy="44" r="11.1" fill="#f5f5f0"/>
<circle cx="32" cy="44" r="8.2" fill="#2a2a2a"/>
<circle cx="32" cy="44" r="4.9" fill="#f5f5f0"/>
<circle cx="32" cy="44" r="2.9" fill="#111111"/>
<circle cx="61" cy="46" r="14" fill="rgba(0,0,0,.18)"/>
<circle cx="60" cy="44" r="14" fill="#2a2a2a"/>
<circle cx="60" cy="44" r="11.1" fill="#f5f5f0"/>
<circle cx="60" cy="44" r="8.2" fill="#2a2a2a"/>
<circle cx="60" cy="44" r="4.9" fill="#f5f5f0"/>
<circle cx="60" cy="44" r="2.9" fill="#111111"/>
<circle cx="89" cy="46" r="14" fill="rgba(0,0,0,.18)"/>
<circle cx="88" cy="44" r="14" fill="#2a2a2a"/>
<circle cx="88" cy="44" r="11.1" fill="#f5f5f0"/>
<circle cx="88" cy="44" r="8.2" fill="#2a2a2a"/>
<circle cx="88" cy="44" r="4.9" fill="#f5f5f0"/>
<circle cx="88" cy="44" r="2.9" fill="#111111"/>
<circle cx="33" cy="96" r="14" fill="rgba(0,0,0,.18)"/>
<circle cx="32" cy="94" r="14" fill="#a83226"/>
<circle cx="32" cy="94" r="11.1" fill="#f5f5f0"/>
<circle cx="32" cy="94" r="8.2" fill="#a83226"/>
<circle cx="32" cy="94" r="4.9" fill="#f5f5f0"/>
<circle cx="32" cy="94" r="2.9" fill="#701a14"/>
<circle cx="61" cy="96" r="14" fill="rgba(0,0,0,.18)"/>
<circle cx="60" cy="94" r="14" fill="#a83226"/>
<circle cx="60" cy="94" r="11.1" fill="#f5f5f0"/>
<circle cx="60" cy="94" r="8.2" fill="#a83226"/>
<circle cx="60" cy="94" r="4.9" fill="#f5f5f0"/>
<circle cx="60" cy="94" r="2.9" fill="#701a14"/>
<circle cx="89" cy="96" r="14" fill="rgba(0,0,0,.18)"/>
<circle cx="88" cy="94" r="14" fill="#a83226"/>
<circle cx="88" cy="94" r="11.1" fill="#f5f5f0"/>
<circle cx="88" cy="94" r="8.2" fill="#a83226"/>
<circle cx="88" cy="94" r="4.9" fill="#f5f5f0"/>
<circle cx="88" cy="94" r="2.9" fill="#701a14"/>
<circle cx="33" cy="146" r="14" fill="rgba(0,0,0,.18)"/>
<circle cx="32" cy="144" r="14" fill="#2d6b3a"/>
<circle cx="32" cy="144" r="11.1" fill="#f5f5f0"/>
<circle cx="32" cy="144" r="8.2" fill="#2d6b3a"/>
<circle cx="32" cy="144" r="4.9" fill="#f5f5f0"/>
<circle cx="32" cy="144" r="2.9" fill="#1a4a25"/>
<circle cx="61" cy="146" r="14" fill="rgba(0,0,0,.18)"/>
<circle cx="60" cy="144" r="14" fill="#2d6b3a"/>
<circle cx="60" cy="144" r="11.1" fill="#f5f5f0"/>
<circle cx="60" cy="144" r="8.2" fill="#2d6b3a"/>
<circle cx="60" cy="144" r="4.9" fill="#f5f5f0"/>
<circle cx="60" cy="144" r="2.9" fill="#1a4a25"/>
<circle cx="89" cy="146" r="14" fill="rgba(0,0,0,.18)"/>
<circle cx="88" cy="144" r="14" fill="#2d6b3a"/>
<circle cx="88" cy="144" r="11.1" fill="#f5f5f0"/>
<circle cx="88" cy="144" r="8.2" fill="#2d6b3a"/>
<circle cx="88" cy="144" r="4.9" fill="#f5f5f0"/>
<circle cx="88" cy="144" r="2.9" fill="#1a4a25"/></g>
<g transform="translate(1320,0)"><rect x="5" y="11" width="110" height="164" rx="13" fill="url(#nk-gSide)"/>
<rect x="5" y="6" width="110" height="165" rx="13" fill="url(#nk-gFace)"/>
<rect x="6.8" y="8" width="106.4" height="161" rx="11.5" fill="none" stroke="rgba(255,255,255,.6)" stroke-width="1.6"/>
<rect x="9.5" y="11" width="101" height="156" rx="9.5" fill="none" stroke="rgba(115,98,60,.16)" stroke-width="1"/>
<circle cx="33" cy="46" r="14" fill="rgba(0,0,0,.18)"/>
<circle cx="32" cy="44" r="14" fill="#2a2a2a"/>
<circle cx="32" cy="44" r="11.1" fill="#f5f5f0"/>
<circle cx="32" cy="44" r="8.2" fill="#2a2a2a"/>
<circle cx="32" cy="44" r="4.9" fill="#f5f5f0"/>
<circle cx="32" cy="44" r="2.9" fill="#111111"/>
<circle cx="61" cy="46" r="14" fill="rgba(0,0,0,.18)"/>
<circle cx="60" cy="44" r="14" fill="#2a2a2a"/>
<circle cx="60" cy="44" r="11.1" fill="#f5f5f0"/>
<circle cx="60" cy="44" r="8.2" fill="#2a2a2a"/>
<circle cx="60" cy="44" r="4.9" fill="#f5f5f0"/>
<circle cx="60" cy="44" r="2.9" fill="#111111"/>
<circle cx="89" cy="46" r="14" fill="rgba(0,0,0,.18)"/>
<circle cx="88" cy="44" r="14" fill="#2a2a2a"/>
<circle cx="88" cy="44" r="11.1" fill="#f5f5f0"/>
<circle cx="88" cy="44" r="8.2" fill="#2a2a2a"/>
<circle cx="88" cy="44" r="4.9" fill="#f5f5f0"/>
<circle cx="88" cy="44" r="2.9" fill="#111111"/>
<circle cx="33" cy="96" r="14" fill="rgba(0,0,0,.18)"/>
<circle cx="32" cy="94" r="14" fill="#a83226"/>
<circle cx="32" cy="94" r="11.1" fill="#f5f5f0"/>
<circle cx="32" cy="94" r="8.2" fill="#a83226"/>
<circle cx="32" cy="94" r="4.9" fill="#f5f5f0"/>
<circle cx="32" cy="94" r="2.9" fill="#701a14"/>
<circle cx="61" cy="96" r="14" fill="rgba(0,0,0,.18)"/>
<circle cx="60" cy="94" r="14" fill="#a83226"/>
<circle cx="60" cy="94" r="11.1" fill="#f5f5f0"/>
<circle cx="60" cy="94" r="8.2" fill="#a83226"/>
<circle cx="60" cy="94" r="4.9" fill="#f5f5f0"/>
<circle cx="60" cy="94" r="2.9" fill="#701a14"/>
<circle cx="89" cy="96" r="14" fill="rgba(0,0,0,.18)"/>
<circle cx="88" cy="94" r="14" fill="#a83226"/>
<circle cx="88" cy="94" r="11.1" fill="#f5f5f0"/>
<circle cx="88" cy="94" r="8.2" fill="#a83226"/>
<circle cx="88" cy="94" r="4.9" fill="#f5f5f0"/>
<circle cx="88" cy="94" r="2.9" fill="#701a14"/>
<circle cx="33" cy="146" r="14" fill="rgba(0,0,0,.18)"/>
<circle cx="32" cy="144" r="14" fill="#2d6b3a"/>
<circle cx="32" cy="144" r="11.1" fill="#f5f5f0"/>
<circle cx="32" cy="144" r="8.2" fill="#2d6b3a"/>
<circle cx="32" cy="144" r="4.9" fill="#f5f5f0"/>
<circle cx="32" cy="144" r="2.9" fill="#1a4a25"/>
<circle cx="61" cy="146" r="14" fill="rgba(0,0,0,.18)"/>
<circle cx="60" cy="144" r="14" fill="#2d6b3a"/>
<circle cx="60" cy="144" r="11.1" fill="#f5f5f0"/>
<circle cx="60" cy="144" r="8.2" fill="#2d6b3a"/>
<circle cx="60" cy="144" r="4.9" fill="#f5f5f0"/>
<circle cx="60" cy="144" r="2.9" fill="#1a4a25"/>
<circle cx="89" cy="146" r="14" fill="rgba(0,0,0,.18)"/>
<circle cx="88" cy="144" r="14" fill="#2d6b3a"/>
<circle cx="88" cy="144" r="11.1" fill="#f5f5f0"/>
<circle cx="88" cy="144" r="8.2" fill="#2d6b3a"/>
<circle cx="88" cy="144" r="4.9" fill="#f5f5f0"/>
<circle cx="88" cy="144" r="2.9" fill="#1a4a25"/></g>
<g transform="translate(1452,0)"><rect x="5" y="11" width="110" height="164" rx="13" fill="url(#nk-gSide)"/>
<rect x="5" y="6" width="110" height="165" rx="13" fill="url(#nk-gFace)"/>
<rect x="6.8" y="8" width="106.4" height="161" rx="11.5" fill="none" stroke="rgba(255,255,255,.6)" stroke-width="1.6"/>
<rect x="9.5" y="11" width="101" height="156" rx="9.5" fill="none" stroke="rgba(115,98,60,.16)" stroke-width="1"/>
<g transform="translate(5.85,15.9) scale(5.7)">
      <g>
    <path fill="#005529" d="M5.69,21.7v-.12s-.02-.19,.05-.28c.1-.14,.55-.34,.55-.82s-.44-.67-.55-.82c-.07-.1-.05-.28-.05-.28v-.13s-.02-.32,.07-.43c.14-.17,.49-.32,.47-.68-.01-.3-.25-.5-.63-.57-.22-.04-.33-.33-.91-.33s-.7,.3-.91,.33c-.38,.06-.62,.26-.63,.57-.01,.36,.33,.51,.47,.68,.09,.11,.07,.43,.07,.43v.13s.02,.19-.05,.28c-.1,.14-.55,.34-.55,.82s.44,.67,.55,.82c.07,.1,.05,.28,.05,.28v.12s.02,.32-.07,.43c-.2,.23-.58,.43-.47,.75,.12,.33,.34,.54,.72,.48,.34-.05,.43-.25,.82-.25s.49,.19,.82,.25c.38,.06,.6-.15,.72-.48,.12-.32-.26-.51-.47-.75-.1-.11-.07-.43-.07-.43Zm-.67,.88c0,.1-.1,.18-.23,.18h-.19c-.13,0-.23-.08-.23-.18v-1.48c0-.1,.1-.18,.23-.18h.19c.13,0,.23,.08,.23,.18v1.48Zm0-2.01c0,.08-.09,.15-.19,.15h-.27c-.11,0-.19-.07-.19-.15v-.33c0-.08,.09-.15,.19-.15h.27c.11,0,.19,.07,.19,.15v.33Zm0-.87c0,.1-.1,.18-.23,.18h-.19c-.13,0-.23-.08-.23-.18v-1.48c0-.1,.1-.18,.23-.18h.19c.13,0,.23,.08,.23,.18v1.48Z"/>
    <path fill="#005529" d="M15.31,21.7v-.12s-.02-.19,.05-.28c.1-.14,.55-.34,.55-.82s-.44-.67-.55-.82c-.07-.1-.05-.28-.05-.28v-.13s-.02-.32,.07-.43c.14-.17,.49-.32,.47-.68-.01-.3-.25-.5-.63-.57-.22-.04-.33-.33-.91-.33s-.7,.3-.91,.33c-.38,.06-.62,.26-.63,.57-.01,.36,.33,.51,.47,.68,.09,.11,.07,.43,.07,.43v.13s.02,.19-.05,.28c-.1,.14-.55,.34-.55,.82s.44,.67,.55,.82c.07,.1,.05,.28,.05,.28v.12s.02,.32-.07,.43c-.2,.23-.58,.43-.47,.75,.12,.33,.34,.54,.72,.48,.34-.05,.43-.25,.82-.25s.49,.19,.82,.25c.38,.06,.6-.15,.72-.48,.12-.32-.26-.51-.47-.75-.1-.11-.07-.43-.07-.43Zm-.67,.88c0,.1-.1,.18-.23,.18h-.19c-.13,0-.23-.08-.23-.18v-1.48c0-.1,.1-.18,.23-.18h.19c.13,0,.23,.08,.23,.18v1.48Zm0-2.01c0,.08-.09,.15-.19,.15h-.27c-.11,0-.19-.07-.19-.15v-.33c0-.08,.09-.15,.19-.15h.27c.11,0,.19,.07,.19,.15v.33Zm0-.87c0,.1-.1,.18-.23,.18h-.19c-.13,0-.23-.08-.23-.18v-1.48c0-.1,.1-.18,.23-.18h.19c.13,0,.23,.08,.23,.18v1.48Z"/>
    <path fill="#005529" d="M10.5,21.7v-.12s-.02-.19,.05-.28c.1-.14,.55-.34,.55-.82s-.44-.67-.55-.82c-.07-.1-.05-.28-.05-.28v-.13s-.02-.32,.07-.43c.14-.17,.49-.32,.47-.68-.01-.3-.25-.5-.63-.57-.22-.04-.33-.33-.91-.33s-.7,.3-.91,.33c-.38,.06-.62,.26-.63,.57-.01,.36,.33,.51,.47,.68,.09,.11,.07,.43,.07,.43v.13s.02,.19-.05,.28c-.1,.14-.55,.34-.55,.82s.44,.67,.55,.82c.07,.1,.05,.28,.05,.28v.12s.02,.32-.07,.43c-.2,.23-.58,.43-.47,.75,.12,.33,.34,.54,.72,.48,.34-.05,.43-.25,.82-.25s.49,.19,.82,.25c.38,.06,.6-.15,.72-.48,.12-.32-.26-.51-.47-.75-.1-.11-.07-.43-.07-.43Zm-.67,.88c0,.1-.1,.18-.23,.18h-.19c-.13,0-.23-.08-.23-.18v-1.48c0-.1,.1-.18,.23-.18h.19c.13,0,.23,.08,.23,.18v1.48Zm0-2.01c0,.08-.09,.15-.19,.15h-.27c-.11,0-.19-.07-.19-.15v-.33c0-.08,.09-.15,.19-.15h.27c.11,0,.19,.07,.19,.15v.33Zm0-.87c0,.1-.1,.18-.23,.18h-.19c-.13,0-.23-.08-.23-.18v-1.48c0-.1,.1-.18,.23-.18h.19c.13,0,.23,.08,.23,.18v1.48Z"/>
    <path fill="#881c21" d="M10.5,7.08v-.12s-.02-.19,.05-.28c.1-.14,.55-.34,.55-.82s-.44-.67-.55-.82c-.07-.1-.05-.28-.05-.28v-.13s-.02-.32,.07-.43c.14-.17,.49-.32,.47-.68-.01-.3-.25-.5-.63-.56-.22-.04-.33-.33-.91-.33s-.7,.3-.91,.33c-.38,.06-.62,.26-.63,.56-.01,.36,.33,.51,.47,.68,.09,.11,.07,.43,.07,.43v.13s.02,.19-.05,.28c-.1,.14-.55,.34-.55,.82s.44,.67,.55,.82c.07,.1,.05,.28,.05,.28v.12s.02,.32-.07,.43c-.2,.23-.58,.43-.47,.75,.12,.33,.34,.54,.72,.48,.34-.05,.43-.25,.82-.25s.49,.19,.82,.25c.38,.06,.6-.15,.72-.48,.12-.32-.26-.51-.47-.75-.1-.11-.07-.43-.07-.43Zm-.67,.88c0,.1-.1,.18-.23,.18h-.19c-.13,0-.23-.08-.23-.18v-1.48c0-.1,.1-.18,.23-.18h.19c.13,0,.23,.08,.23,.18v1.48Zm0-2.01c0,.08-.09,.15-.19,.15h-.27c-.11,0-.19-.07-.19-.15v-.33c0-.08,.09-.15,.19-.15h.27c.11,0,.19,.07,.19,.15v.33Zm0-.87c0,.1-.1,.18-.23,.18h-.19c-.13,0-.23-.08-.23-.18v-1.48c0-.1,.1-.18,.23-.18h.19c.13,0,.23,.08,.23,.18v1.48Z"/>
    <path fill="#005529" d="M5.69,14.39v-.12s-.02-.19,.05-.28c.1-.14,.55-.34,.55-.82s-.44-.67-.55-.82c-.07-.1-.05-.28-.05-.28v-.13s-.02-.32,.07-.43c.14-.17,.49-.32,.47-.68-.01-.3-.25-.5-.63-.57-.22-.04-.33-.33-.91-.33s-.7,.3-.91,.33c-.38,.06-.62,.26-.63,.57-.01,.36,.33,.51,.47,.68,.09,.11,.07,.43,.07,.43v.13s.02,.19-.05,.28c-.1,.14-.55,.34-.55,.82s.44,.67,.55,.82c.07,.1,.05,.28,.05,.28v.12s.02,.32-.07,.43c-.2,.23-.58,.43-.47,.75,.12,.33,.34,.54,.72,.48,.34-.05,.43-.25,.82-.25s.49,.19,.82,.25c.38,.06,.6-.15,.72-.48,.12-.32-.26-.51-.47-.75-.1-.11-.07-.43-.07-.43Zm-.67,.88c0,.1-.1,.18-.23,.18h-.19c-.13,0-.23-.08-.23-.18v-1.48c0-.1,.1-.18,.23-.18h.19c.13,0,.23,.08,.23,.18v1.48Zm0-2.01c0,.08-.09,.15-.19,.15h-.27c-.11,0-.19-.07-.19-.15v-.33c0-.08,.09-.15,.19-.15h.27c.11,0,.19,.07,.19,.15v.33Zm0-.87c0,.1-.1,.18-.23,.18h-.19c-.13,0-.23-.08-.23-.18v-1.48c0-.1,.1-.18,.23-.18h.19c.13,0,.23,.08,.23,.18v1.48Z"/>
    <path fill="#005529" d="M15.31,14.39v-.12s-.02-.19,.05-.28c.1-.14,.55-.34,.55-.82s-.44-.67-.55-.82c-.07-.1-.05-.28-.05-.28v-.13s-.02-.32,.07-.43c.14-.17,.49-.32,.47-.68-.01-.3-.25-.5-.63-.57-.22-.04-.33-.33-.91-.33s-.7,.3-.91,.33c-.38,.06-.62,.26-.63,.57-.01,.36,.33,.51,.47,.68,.09,.11,.07,.43,.07,.43v.13s.02,.19-.05,.28c-.1,.14-.55,.34-.55,.82s.44,.67,.55,.82c.07,.1,.05,.28,.05,.28v.12s.02,.32-.07,.43c-.2,.23-.58,.43-.47,.75,.12,.33,.34,.54,.72,.48,.34-.05,.43-.25,.82-.25s.49,.19,.82,.25c.38,.06,.6-.15,.72-.48,.12-.32-.26-.51-.47-.75-.1-.11-.07-.43-.07-.43Zm-.67,.88c0,.1-.1,.18-.23,.18h-.19c-.13,0-.23-.08-.23-.18v-1.48c0-.1,.1-.18,.23-.18h.19c.13,0,.23,.08,.23,.18v1.48Zm0-2.01c0,.08-.09,.15-.19,.15h-.27c-.11,0-.19-.07-.19-.15v-.33c0-.08,.09-.15,.19-.15h.27c.11,0,.19,.07,.19,.15v.33Zm0-.87c0,.1-.1,.18-.23,.18h-.19c-.13,0-.23-.08-.23-.18v-1.48c0-.1,.1-.18,.23-.18h.19c.13,0,.23,.08,.23,.18v1.48Z"/>
    <path fill="#005529" d="M10.5,14.39v-.12s-.02-.19,.05-.28c.1-.14,.55-.34,.55-.82s-.44-.67-.55-.82c-.07-.1-.05-.28-.05-.28v-.13s-.02-.32,.07-.43c.14-.17,.49-.32,.47-.68-.01-.3-.25-.5-.63-.57-.22-.04-.33-.33-.91-.33s-.7,.3-.91,.33c-.38,.06-.62,.26-.63,.57-.01,.36,.33,.51,.47,.68,.09,.11,.07,.43,.07,.43v.13s.02,.19-.05,.28c-.1,.14-.55,.34-.55,.82s.44,.67,.55,.82c.07,.1,.05,.28,.05,.28v.12s.02,.32-.07,.43c-.2,.23-.58,.43-.47,.75,.12,.33,.34,.54,.72,.48,.34-.05,.43-.25,.82-.25s.49,.19,.82,.25c.38,.06,.6-.15,.72-.48,.12-.32-.26-.51-.47-.75-.1-.11-.07-.43-.07-.43Zm-.67,.88c0,.1-.1,.18-.23,.18h-.19c-.13,0-.23-.08-.23-.18v-1.48c0-.1,.1-.18,.23-.18h.19c.13,0,.23,.08,.23,.18v1.48Zm0-2.01c0,.08-.09,.15-.19,.15h-.27c-.11,0-.19-.07-.19-.15v-.33c0-.08,.09-.15,.19-.15h.27c.11,0,.19,.07,.19,.15v.33Zm0-.87c0,.1-.1,.18-.23,.18h-.19c-.13,0-.23-.08-.23-.18v-1.48c0-.1,.1-.18,.23-.18h.19c.13,0,.23,.08,.23,.18v1.48Z"/>
  </g>
    </g></g>
<g transform="translate(1584,0)"><rect x="5" y="11" width="110" height="164" rx="13" fill="url(#nk-gSide)"/>
<rect x="5" y="6" width="110" height="165" rx="13" fill="url(#nk-gFace)"/>
<rect x="6.8" y="8" width="106.4" height="161" rx="11.5" fill="none" stroke="rgba(255,255,255,.6)" stroke-width="1.6"/>
<rect x="9.5" y="11" width="101" height="156" rx="9.5" fill="none" stroke="rgba(115,98,60,.16)" stroke-width="1"/>
<g transform="translate(5.85,15.9) scale(5.7)">
      <path fill="#005529" d="M15.83,10.03v-1.26s-.02-.23,.06-.34c.11-.17,.61-.4,.61-.98s-.49-.81-.61-.98c-.08-.12-.06-.34-.06-.34v-1.07s-.02-.38,.08-.52c.16-.2,.54-.38,.53-.82-.01-.36-.28-.61-.7-.68-.24-.04-.36-.4-1.02-.4s-.78,.36-1.02,.4c-.42,.07-.69,.32-.7,.68-.02,.43,.37,.61,.53,.82,.11,.14,.08,.52,.08,.52v1.07s.02,.23-.06,.34c-.11,.17-.61,.4-.61,.98s.49,.81,.61,.98c.08,.12,.06,.34,.06,.34v.46c-.07,.07-.18,.12-.34,.04l-.59-.49s-.18-.13-.22-.36c-.04-.2,.41-.77,0-1.18-.36-.36-.92-.07-1.07-.05-.18,.03-.34,.03-.51-.15-.05-.05-.07-.2-.03-.29,.06-.11,.34-.2,.34-.7,0-.38-.6-.55-.91-.55-.28,0-.24,.13-.77,.13s-.49-.13-.77-.13c-.31,0-.91,.17-.91,.55,0,.5,.27,.59,.34,.7,.05,.09,.03,.24-.03,.29-.18,.17-.34,.18-.51,.15-.15-.02-.71-.32-1.07,.05-.41,.41,.04,.98,0,1.18-.04,.23-.22,.36-.22,.36l-.59,.49c-.16,.08-.27,.03-.34-.04v-.46s-.02-.23,.06-.34c.11-.17,.61-.4,.61-.98s-.49-.81-.61-.98c-.08-.12-.06-.34-.06-.34v-1.07s-.02-.38,.08-.52c.16-.2,.54-.38,.53-.82-.01-.36-.28-.61-.7-.68-.24-.04-.36-.4-1.02-.4s-.78,.36-1.02,.4c-.42,.07-.69,.32-.7,.68-.02,.43,.37,.61,.53,.82,.11,.14,.08,.52,.08,.52v1.07s.02,.23-.06,.34c-.11,.17-.61,.4-.61,.98s.49,.81,.61,.98c.08,.12,.06,.34,.06,.34v1.26s.03,.38-.08,.52c-.23,.28-.65,.52-.52,.9,.14,.4,.38,.65,.8,.58,.38-.07,.48-.3,.92-.3s.54,.23,.92,.3c.42,.07,.66-.18,.8-.58,.01-.03,0-.06,0-.09h.02s-.04-.49,.22-.75l1.03-.88s.07-.06,.2-.11c.3-.12,.52,.17,.88,.19,.86,.04,.69-.82,.62-1.08-.11-.45,.3-.65,.52-.65s.67,.2,.52,.65c-.08,.26-.23,1.12,.62,1.08,.36-.02,.58-.31,.88-.19,.13,.05,.2,.11,.2,.11l1.03,.88c.26,.25,.22,.76,.22,.76h.02s0,.05,0,.08c.14,.4,.38,.65,.8,.58,.38-.07,.48-.3,.92-.3s.54,.23,.92,.3c.42,.07,.66-.18,.8-.58,.13-.38-.29-.62-.52-.9-.11-.13-.08-.52-.08-.52ZM3.78,3.71c.04-.35,.22-.5,.51-.5s.47,.16,.51,.5c.04,.34-.09,.47-.13,.56-.04,.09-.04,.27-.04,.27v1.82c0,.15-.09,.26-.19,.26h-.27c-.1,0-.19-.12-.19-.26v-1.82s0-.17-.04-.27c-.04-.09-.17-.22-.13-.56Zm.83,7.34c0,.12-.1,.22-.22,.22h-.22c-.12,0-.22-.1-.22-.22v-2.55c0-.12,.1-.22,.22-.22h.22c.12,0,.22,.1,.22,.22v2.55Zm.36-3.26c0,.13-.11,.24-.24,.24h-.9c-.13,0-.24-.11-.24-.24v-.02c0-.13,.11-.24,.24-.24h.9c.13,0,.24,.11,.24,.24v.02Zm0-.67c0,.13-.11,.24-.24,.24h-.9c-.13,0-.24-.11-.24-.24v-.02c0-.13,.11-.24,.24-.24h.9c.13,0,.24,.11,.24,.24v.02Zm2.24,2.03l-1.63,1.39c-.09,.08-.22,.07-.3-.02l-.02-.03c-.08-.09-.07-.22,.02-.29l1.63-1.39c.09-.08,.22-.07,.3,.02l.02,.03c.08,.09,.07,.22-.02,.29Zm.92-.21h-.01c-.1,.1-.26,.09-.35-.02l-.58-.66c-.09-.1-.08-.26,.03-.34h.01c.1-.1,.26-.09,.35,.02l.58,.66c.09,.1,.08,.26-.03,.34Zm2.47-.95l-1.11-.96-1.11,.96c-.07,.06-.18,.06-.25-.01l-.08-.08c-.06-.07-.06-.18,.01-.24l1.14-.99s.03-.02,.03-.03v-.62c0-.07,.07-.12,.14-.12h.2c.07,0,.14,.05,.14,.12v.62s.02,.01,.03,.03l1.14,.99c.07,.06,.08,.17,.02,.24l-.08,.08c-.06,.07-.17,.08-.25,.01Zm.61,.93c-.09,.1-.25,.11-.35,.03h-.01c-.1-.1-.12-.25-.03-.35l.58-.66c.09-.1,.25-.11,.35-.03h.01c.1,.1,.12,.25,.03,.35l-.58,.66Zm2.52,1.58l-.02,.03c-.08,.09-.21,.1-.3,.02l-1.63-1.39c-.09-.08-.1-.21-.02-.29l.02-.03c.08-.09,.21-.1,.3-.02l1.63,1.39c.09,.08,.1,.21,.02,.29Zm.47-6.79c.04-.35,.22-.5,.51-.5s.47,.16,.51,.5c.04,.34-.09,.47-.13,.56-.04,.09-.04,.27-.04,.27v1.82c0,.15-.09,.26-.19,.26h-.27c-.1,0-.19-.12-.19-.26v-1.82s0-.17-.04-.27c-.04-.09-.17-.22-.13-.56Zm.83,7.34c0,.12-.1,.22-.22,.22h-.22c-.12,0-.22-.1-.22-.22v-2.55c0-.12,.1-.22,.22-.22h.22c.12,0,.22,.1,.22,.22v2.55Zm.36-3.26c0,.13-.11,.24-.24,.24h-.9c-.13,0-.24-.11-.24-.24v-.02c0-.13,.11-.24,.24-.24h.9c.13,0,.24,.11,.24,.24v.02Zm0-.67c0,.13-.11,.24-.24,.24h-.9c-.13,0-.24-.11-.24-.24v-.02c0-.13,.11-.24,.24-.24h.9c.13,0,.24,.11,.24,.24v.02Z"/>
  <path fill="#005529" d="M15.83,21.36v-1.26s-.02-.23,.06-.34c.11-.17,.61-.4,.61-.98s-.49-.81-.61-.98c-.08-.12-.06-.34-.06-.34v-1.07s-.02-.38,.08-.52c.16-.2,.54-.38,.53-.82-.01-.36-.28-.61-.7-.68-.24-.04-.36-.4-1.02-.4s-.78,.36-1.02,.4c-.42,.07-.69,.32-.7,.68,0,0,.02,.48-.24,.74l-1.03,.88s-.07,.06-.2,.11c-.3,.12-.52-.17-.88-.19-.86-.04-.71,.82-.62,1.08,.14,.45-.3,.65-.52,.65s-.64-.2-.52-.65c.07-.26,.23-1.12-.62-1.08-.36,.02-.58,.31-.88,.19-.13-.05-.2-.11-.2-.11l-1.03-.88c-.26-.25-.24-.74-.24-.74-.01-.36-.28-.61-.7-.68-.24-.04-.36-.4-1.02-.4s-.78,.36-1.02,.4c-.42,.07-.69,.32-.7,.68-.02,.43,.37,.61,.53,.82,.11,.14,.08,.52,.08,.52v1.07s.02,.23-.06,.34c-.11,.17-.61,.4-.61,.98s.49,.81,.61,.98c.08,.12,.06,.34,.06,.34v1.26s.03,.38-.08,.52c-.23,.28-.65,.52-.52,.9,.14,.4,.38,.65,.8,.58,.38-.07,.48-.3,.92-.3s.54,.23,.92,.3c.42,.07,.66-.18,.8-.58,.13-.38-.29-.62-.52-.9-.11-.13-.08-.52-.08-.52v-1.26s-.02-.23,.06-.34c.11-.17,.61-.4,.61-.98s-.49-.81-.61-.98c-.08-.12-.06-.34-.06-.34v-.28c.07-.07,.18-.12,.34-.04l.59,.49s.18,.13,.22,.36c.04,.2-.41,.77,0,1.18,.36,.36,.92,.07,1.07,.05,.18-.03,.34-.03,.51,.15,.05,.05,.07,.2,.03,.29-.06,.11-.34,.2-.34,.7,0,.38,.6,.54,.91,.54,.28,0,.24-.13,.77-.13s.49,.13,.77,.13c.31,0,.91-.17,.91-.54,0-.5-.27-.59-.34-.7-.05-.09-.03-.24,.03-.29,.18-.17,.34-.18,.51-.15,.15,.02,.71,.32,1.07-.05,.41-.41-.04-.98,0-1.18,.04-.23,.22-.36,.22-.36l.59-.49c.16-.08,.27-.03,.34,.04v.28s.02,.23-.06,.34c-.11,.17-.61,.4-.61,.98s.49,.81,.61,.98c.08,.12,.06,.34,.06,.34v1.26s.03,.38-.08,.52c-.23,.28-.65,.52-.52,.9,.14,.4,.38,.65,.8,.58,.38-.07,.48-.3,.92-.3s.54,.23,.92,.3c.42,.07,.66-.18,.8-.58,.13-.38-.29-.62-.52-.9-.11-.13-.08-.52-.08-.52ZM3.78,15.04c.04-.35,.22-.5,.51-.5s.47,.16,.51,.5c.04,.34-.09,.47-.13,.56s-.04,.27-.04,.27v1.82c0,.15-.09,.26-.19,.26h-.27c-.1,0-.19-.12-.19-.26v-1.82s0-.17-.04-.27c-.04-.09-.17-.22-.13-.56Zm.83,7.31c0,.12-.1,.22-.22,.22h-.22c-.12,0-.22-.1-.22-.22v-2.53c0-.12,.1-.22,.22-.22h.22c.12,0,.22,.1,.22,.22v2.53Zm.36-3.23c0,.13-.11,.24-.24,.24h-.9c-.13,0-.24-.11-.24-.24v-.02c0-.13,.11-.24,.24-.24h.9c.13,0,.24,.11,.24,.24v.02Zm0-.67c0,.13-.11,.24-.24,.24h-.9c-.13,0-.24-.11-.24-.24v-.02c0-.13,.11-.24,.24-.24h.9c.13,0,.24,.11,.24,.24v.02Zm1.94-.86l-1.63-1.39c-.09-.08-.1-.21-.02-.29l.02-.03c.08-.09,.21-.1,.3-.02l1.63,1.39c.09,.08,.1,.21,.02,.29l-.02,.03c-.08,.09-.21,.1-.3,.02Zm.67,.88c-.09,.1-.25,.11-.35,.03h-.01c-.1-.1-.12-.25-.03-.35l.58-.66c.09-.1,.25-.11,.35-.03h.01c.1,.1,.12,.25,.03,.35l-.58,.66Zm3.33,.28l-1.14,.99s-.03,.02-.03,.03v.62c0,.07-.07,.12-.14,.12h-.2c-.07,0-.14-.05-.14-.12v-.62s-.02-.01-.03-.03l-1.14-.99c-.07-.06-.08-.17-.01-.24l.08-.08c.06-.07,.17-.08,.25-.01l1.11,.96,1.11-.96c.07-.06,.18-.06,.25,.01l.08,.08c.06,.07,.06,.18-.02,.24Zm.86-.27h-.01c-.1,.1-.26,.09-.35-.02l-.58-.66c-.09-.1-.08-.26,.03-.34h.01c.1-.1,.26-.09,.35,.02l.58,.66c.09,.1,.08,.26-.03,.34Zm1.94-2.28l-1.63,1.39c-.09,.08-.22,.07-.3-.02l-.02-.03c-.08-.09-.07-.22,.02-.29l1.63-1.39c.09-.08,.22-.07,.3,.02l.02,.03c.08,.09,.07,.22-.02,.29Zm.49-1.16c.04-.35,.22-.5,.51-.5s.47,.16,.51,.5c.04,.34-.09,.47-.13,.56-.04,.09-.04,.27-.04,.27v1.82c0,.15-.09,.26-.19,.26h-.27c-.1,0-.19-.12-.19-.26v-1.82s0-.17-.04-.27c-.04-.09-.17-.22-.13-.56Zm.83,7.31c0,.12-.1,.22-.22,.22h-.22c-.12,0-.22-.1-.22-.22v-2.53c0-.12,.1-.22,.22-.22h.22c.12,0,.22,.1,.22,.22v2.53Zm.36-3.23c0,.13-.11,.24-.24,.24h-.9c-.13,0-.24-.11-.24-.24v-.02c0-.13,.11-.24,.24-.24h.9c.13,0,.24,.11,.24,.24v.02Zm0-.67c0,.13-.11,.24-.24,.24h-.9c-.13,0-.24-.11-.24-.24v-.02c0-.13,.11-.24,.24-.24h.9c.13,0,.24,.11,.24,.24v.02Z"/>
    </g></g>
<g transform="translate(1716,0)"><rect x="5" y="11" width="110" height="164" rx="13" fill="url(#nk-gSide)"/>
<rect x="5" y="6" width="110" height="165" rx="13" fill="url(#nk-gFace)"/>
<rect x="6.8" y="8" width="106.4" height="161" rx="11.5" fill="none" stroke="rgba(255,255,255,.6)" stroke-width="1.6"/>
<rect x="9.5" y="11" width="101" height="156" rx="9.5" fill="none" stroke="rgba(115,98,60,.16)" stroke-width="1"/>
<g transform="translate(5.85,15.9) scale(5.7)">
      <g>
    <path fill="#005529" d="M5.69,21.7v-.12s-.02-.19,.05-.28c.1-.14,.55-.34,.55-.82s-.44-.67-.55-.82c-.07-.1-.05-.28-.05-.28v-.13s-.02-.32,.07-.43c.14-.17,.49-.32,.47-.68-.01-.3-.25-.5-.63-.57-.22-.04-.33-.33-.91-.33s-.7,.3-.91,.33c-.38,.06-.62,.26-.63,.57-.01,.36,.33,.51,.47,.68,.09,.11,.07,.43,.07,.43v.13s.02,.19-.05,.28c-.1,.14-.55,.34-.55,.82s.44,.67,.55,.82c.07,.1,.05,.28,.05,.28v.12s.02,.32-.07,.43c-.2,.23-.58,.43-.47,.75,.12,.33,.34,.54,.72,.48,.34-.05,.43-.25,.82-.25s.49,.19,.82,.25c.38,.06,.6-.15,.72-.48,.12-.32-.26-.51-.47-.75-.1-.11-.07-.43-.07-.43Zm-.67,.88c0,.1-.1,.18-.23,.18h-.19c-.13,0-.23-.08-.23-.18v-1.48c0-.1,.1-.18,.23-.18h.19c.13,0,.23,.08,.23,.18v1.48Zm0-2.01c0,.08-.09,.15-.19,.15h-.27c-.11,0-.19-.07-.19-.15v-.33c0-.08,.09-.15,.19-.15h.27c.11,0,.19,.07,.19,.15v.33Zm0-.87c0,.1-.1,.18-.23,.18h-.19c-.13,0-.23-.08-.23-.18v-1.48c0-.1,.1-.18,.23-.18h.19c.13,0,.23,.08,.23,.18v1.48Z"/>
    <path fill="#005529" d="M15.31,21.7v-.12s-.02-.19,.05-.28c.1-.14,.55-.34,.55-.82s-.44-.67-.55-.82c-.07-.1-.05-.28-.05-.28v-.13s-.02-.32,.07-.43c.14-.17,.49-.32,.47-.68-.01-.3-.25-.5-.63-.57-.22-.04-.33-.33-.91-.33s-.7,.3-.91,.33c-.38,.06-.62,.26-.63,.57-.01,.36,.33,.51,.47,.68,.09,.11,.07,.43,.07,.43v.13s.02,.19-.05,.28c-.1,.14-.55,.34-.55,.82s.44,.67,.55,.82c.07,.1,.05,.28,.05,.28v.12s.02,.32-.07,.43c-.2,.23-.58,.43-.47,.75,.12,.33,.34,.54,.72,.48,.34-.05,.43-.25,.82-.25s.49,.19,.82,.25c.38,.06,.6-.15,.72-.48,.12-.32-.26-.51-.47-.75-.1-.11-.07-.43-.07-.43Zm-.67,.88c0,.1-.1,.18-.23,.18h-.19c-.13,0-.23-.08-.23-.18v-1.48c0-.1,.1-.18,.23-.18h.19c.13,0,.23,.08,.23,.18v1.48Zm0-2.01c0,.08-.09,.15-.19,.15h-.27c-.11,0-.19-.07-.19-.15v-.33c0-.08,.09-.15,.19-.15h.27c.11,0,.19,.07,.19,.15v.33Zm0-.87c0,.1-.1,.18-.23,.18h-.19c-.13,0-.23-.08-.23-.18v-1.48c0-.1,.1-.18,.23-.18h.19c.13,0,.23,.08,.23,.18v1.48Z"/>
    <path fill="#881c21" d="M10.5,21.7v-.12s-.02-.19,.05-.28c.1-.14,.55-.34,.55-.82s-.44-.67-.55-.82c-.07-.1-.05-.28-.05-.28v-.13s-.02-.32,.07-.43c.14-.17,.49-.32,.47-.68-.01-.3-.25-.5-.63-.57-.22-.04-.33-.33-.91-.33s-.7,.3-.91,.33c-.38,.06-.62,.26-.63,.57-.01,.36,.33,.51,.47,.68,.09,.11,.07,.43,.07,.43v.13s.02,.19-.05,.28c-.1,.14-.55,.34-.55,.82s.44,.67,.55,.82c.07,.1,.05,.28,.05,.28v.12s.02,.32-.07,.43c-.2,.23-.58,.43-.47,.75,.12,.33,.34,.54,.72,.48,.34-.05,.43-.25,.82-.25s.49,.19,.82,.25c.38,.06,.6-.15,.72-.48,.12-.32-.26-.51-.47-.75-.1-.11-.07-.43-.07-.43Zm-.67,.88c0,.1-.1,.18-.23,.18h-.19c-.13,0-.23-.08-.23-.18v-1.48c0-.1,.1-.18,.23-.18h.19c.13,0,.23,.08,.23,.18v1.48Zm0-2.01c0,.08-.09,.15-.19,.15h-.27c-.11,0-.19-.07-.19-.15v-.33c0-.08,.09-.15,.19-.15h.27c.11,0,.19,.07,.19,.15v.33Zm0-.87c0,.1-.1,.18-.23,.18h-.19c-.13,0-.23-.08-.23-.18v-1.48c0-.1,.1-.18,.23-.18h.19c.13,0,.23,.08,.23,.18v1.48Z"/>
    <path fill="#005529" d="M5.69,7.08v-.12s-.02-.19,.05-.28c.1-.14,.55-.34,.55-.82s-.44-.67-.55-.82c-.07-.1-.05-.28-.05-.28v-.13s-.02-.32,.07-.43c.14-.17,.49-.32,.47-.68-.01-.3-.25-.5-.63-.56-.22-.04-.33-.33-.91-.33s-.7,.3-.91,.33c-.38,.06-.62,.26-.63,.56-.01,.36,.33,.51,.47,.68,.09,.11,.07,.43,.07,.43v.13s.02,.19-.05,.28c-.1,.14-.55,.34-.55,.82s.44,.67,.55,.82c.07,.1,.05,.28,.05,.28v.12s.02,.32-.07,.43c-.2,.23-.58,.43-.47,.75,.12,.33,.34,.54,.72,.48,.34-.05,.43-.25,.82-.25s.49,.19,.82,.25c.38,.06,.6-.15,.72-.48,.12-.32-.26-.51-.47-.75-.1-.11-.07-.43-.07-.43Zm-.67,.88c0,.1-.1,.18-.23,.18h-.19c-.13,0-.23-.08-.23-.18v-1.48c0-.1,.1-.18,.23-.18h.19c.13,0,.23,.08,.23,.18v1.48Zm0-2.01c0,.08-.09,.15-.19,.15h-.27c-.11,0-.19-.07-.19-.15v-.33c0-.08,.09-.15,.19-.15h.27c.11,0,.19,.07,.19,.15v.33Zm0-.87c0,.1-.1,.18-.23,.18h-.19c-.13,0-.23-.08-.23-.18v-1.48c0-.1,.1-.18,.23-.18h.19c.13,0,.23,.08,.23,.18v1.48Z"/>
    <path fill="#005529" d="M15.31,7.08v-.12s-.02-.19,.05-.28c.1-.14,.55-.34,.55-.82s-.44-.67-.55-.82c-.07-.1-.05-.28-.05-.28v-.13s-.02-.32,.07-.43c.14-.17,.49-.32,.47-.68-.01-.3-.25-.5-.63-.56-.22-.04-.33-.33-.91-.33s-.7,.3-.91,.33c-.38,.06-.62,.26-.63,.56-.01,.36,.33,.51,.47,.68,.09,.11,.07,.43,.07,.43v.13s.02,.19-.05,.28c-.1,.14-.55,.34-.55,.82s.44,.67,.55,.82c.07,.1,.05,.28,.05,.28v.12s.02,.32-.07,.43c-.2,.23-.58,.43-.47,.75,.12,.33,.34,.54,.72,.48,.34-.05,.43-.25,.82-.25s.49,.19,.82,.25c.38,.06,.6-.15,.72-.48,.12-.32-.26-.51-.47-.75-.1-.11-.07-.43-.07-.43Zm-.67,.88c0,.1-.1,.18-.23,.18h-.19c-.13,0-.23-.08-.23-.18v-1.48c0-.1,.1-.18,.23-.18h.19c.13,0,.23,.08,.23,.18v1.48Zm0-2.01c0,.08-.09,.15-.19,.15h-.27c-.11,0-.19-.07-.19-.15v-.33c0-.08,.09-.15,.19-.15h.27c.11,0,.19,.07,.19,.15v.33Zm0-.87c0,.1-.1,.18-.23,.18h-.19c-.13,0-.23-.08-.23-.18v-1.48c0-.1,.1-.18,.23-.18h.19c.13,0,.23,.08,.23,.18v1.48Z"/>
    <path fill="#881c21" d="M10.5,7.08v-.12s-.02-.19,.05-.28c.1-.14,.55-.34,.55-.82s-.44-.67-.55-.82c-.07-.1-.05-.28-.05-.28v-.13s-.02-.32,.07-.43c.14-.17,.49-.32,.47-.68-.01-.3-.25-.5-.63-.56-.22-.04-.33-.33-.91-.33s-.7,.3-.91,.33c-.38,.06-.62,.26-.63,.56-.01,.36,.33,.51,.47,.68,.09,.11,.07,.43,.07,.43v.13s.02,.19-.05,.28c-.1,.14-.55,.34-.55,.82s.44,.67,.55,.82c.07,.1,.05,.28,.05,.28v.12s.02,.32-.07,.43c-.2,.23-.58,.43-.47,.75,.12,.33,.34,.54,.72,.48,.34-.05,.43-.25,.82-.25s.49,.19,.82,.25c.38,.06,.6-.15,.72-.48,.12-.32-.26-.51-.47-.75-.1-.11-.07-.43-.07-.43Zm-.67,.88c0,.1-.1,.18-.23,.18h-.19c-.13,0-.23-.08-.23-.18v-1.48c0-.1,.1-.18,.23-.18h.19c.13,0,.23,.08,.23,.18v1.48Zm0-2.01c0,.08-.09,.15-.19,.15h-.27c-.11,0-.19-.07-.19-.15v-.33c0-.08,.09-.15,.19-.15h.27c.11,0,.19,.07,.19,.15v.33Zm0-.87c0,.1-.1,.18-.23,.18h-.19c-.13,0-.23-.08-.23-.18v-1.48c0-.1,.1-.18,.23-.18h.19c.13,0,.23,.08,.23,.18v1.48Z"/>
    <path fill="#005529" d="M5.69,14.39v-.12s-.02-.19,.05-.28c.1-.14,.55-.34,.55-.82s-.44-.67-.55-.82c-.07-.1-.05-.28-.05-.28v-.13s-.02-.32,.07-.43c.14-.17,.49-.32,.47-.68-.01-.3-.25-.5-.63-.57-.22-.04-.33-.33-.91-.33s-.7,.3-.91,.33c-.38,.06-.62,.26-.63,.57-.01,.36,.33,.51,.47,.68,.09,.11,.07,.43,.07,.43v.13s.02,.19-.05,.28c-.1,.14-.55,.34-.55,.82s.44,.67,.55,.82c.07,.1,.05,.28,.05,.28v.12s.02,.32-.07,.43c-.2,.23-.58,.43-.47,.75,.12,.33,.34,.54,.72,.48,.34-.05,.43-.25,.82-.25s.49,.19,.82,.25c.38,.06,.6-.15,.72-.48,.12-.32-.26-.51-.47-.75-.1-.11-.07-.43-.07-.43Zm-.67,.88c0,.1-.1,.18-.23,.18h-.19c-.13,0-.23-.08-.23-.18v-1.48c0-.1,.1-.18,.23-.18h.19c.13,0,.23,.08,.23,.18v1.48Zm0-2.01c0,.08-.09,.15-.19,.15h-.27c-.11,0-.19-.07-.19-.15v-.33c0-.08,.09-.15,.19-.15h.27c.11,0,.19,.07,.19,.15v.33Zm0-.87c0,.1-.1,.18-.23,.18h-.19c-.13,0-.23-.08-.23-.18v-1.48c0-.1,.1-.18,.23-.18h.19c.13,0,.23,.08,.23,.18v1.48Z"/>
    <path fill="#005529" d="M15.31,14.39v-.12s-.02-.19,.05-.28c.1-.14,.55-.34,.55-.82s-.44-.67-.55-.82c-.07-.1-.05-.28-.05-.28v-.13s-.02-.32,.07-.43c.14-.17,.49-.32,.47-.68-.01-.3-.25-.5-.63-.57-.22-.04-.33-.33-.91-.33s-.7,.3-.91,.33c-.38,.06-.62,.26-.63,.57-.01,.36,.33,.51,.47,.68,.09,.11,.07,.43,.07,.43v.13s.02,.19-.05,.28c-.1,.14-.55,.34-.55,.82s.44,.67,.55,.82c.07,.1,.05,.28,.05,.28v.12s.02,.32-.07,.43c-.2,.23-.58,.43-.47,.75,.12,.33,.34,.54,.72,.48,.34-.05,.43-.25,.82-.25s.49,.19,.82,.25c.38,.06,.6-.15,.72-.48,.12-.32-.26-.51-.47-.75-.1-.11-.07-.43-.07-.43Zm-.67,.88c0,.1-.1,.18-.23,.18h-.19c-.13,0-.23-.08-.23-.18v-1.48c0-.1,.1-.18,.23-.18h.19c.13,0,.23,.08,.23,.18v1.48Zm0-2.01c0,.08-.09,.15-.19,.15h-.27c-.11,0-.19-.07-.19-.15v-.33c0-.08,.09-.15,.19-.15h.27c.11,0,.19,.07,.19,.15v.33Zm0-.87c0,.1-.1,.18-.23,.18h-.19c-.13,0-.23-.08-.23-.18v-1.48c0-.1,.1-.18,.23-.18h.19c.13,0,.23,.08,.23,.18v1.48Z"/>
    <path fill="#881c21" d="M10.5,14.39v-.12s-.02-.19,.05-.28c.1-.14,.55-.34,.55-.82s-.44-.67-.55-.82c-.07-.1-.05-.28-.05-.28v-.13s-.02-.32,.07-.43c.14-.17,.49-.32,.47-.68-.01-.3-.25-.5-.63-.57-.22-.04-.33-.33-.91-.33s-.7,.3-.91,.33c-.38,.06-.62,.26-.63,.57-.01,.36,.33,.51,.47,.68,.09,.11,.07,.43,.07,.43v.13s.02,.19-.05,.28c-.1,.14-.55,.34-.55,.82s.44,.67,.55,.82c.07,.1,.05,.28,.05,.28v.12s.02,.32-.07,.43c-.2,.23-.58,.43-.47,.75,.12,.33,.34,.54,.72,.48,.34-.05,.43-.25,.82-.25s.49,.19,.82,.25c.38,.06,.6-.15,.72-.48,.12-.32-.26-.51-.47-.75-.1-.11-.07-.43-.07-.43Zm-.67,.88c0,.1-.1,.18-.23,.18h-.19c-.13,0-.23-.08-.23-.18v-1.48c0-.1,.1-.18,.23-.18h.19c.13,0,.23,.08,.23,.18v1.48Zm0-2.01c0,.08-.09,.15-.19,.15h-.27c-.11,0-.19-.07-.19-.15v-.33c0-.08,.09-.15,.19-.15h.27c.11,0,.19,.07,.19,.15v.33Zm0-.87c0,.1-.1,.18-.23,.18h-.19c-.13,0-.23-.08-.23-.18v-1.48c0-.1,.1-.18,.23-.18h.19c.13,0,.23,.08,.23,.18v1.48Z"/>
  </g>
    </g></g>
</svg>
